<svg width="26" height="27" viewBox="0 0 26 27" fill="none" xmlns="http://www.w3.org/2000/svg">
<path fill-rule="evenodd" clip-rule="evenodd" d="M17.2545 9.23309H25.8363V26.3009C23.5603 26.3009 21.3775 25.4018 19.7681 23.8014C18.1587 22.201 17.2545 20.0304 17.2545 17.767V9.23309ZM8.6727 9.23309V0.699158H25.8363V9.23309H8.6727ZM0.0908813 0.699158H8.6727V9.23309C6.39666 9.23309 4.21384 8.33398 2.60444 6.73356C0.995035 5.13313 0.0908813 2.9625 0.0908813 0.699158ZM0.0908813 17.767H8.6727V26.3009C6.39666 26.3009 4.21384 25.4018 2.60444 23.8014C0.995035 22.201 0.0908813 20.0304 0.0908813 17.767Z" fill="url(#paint0_linear_1_271)"/>
<defs>
<linearGradient id="paint0_linear_1_271" x1="0.0908813" y1="13.5001" x2="25.8363" y2="13.5001" gradientUnits="userSpaceOnUse">
<stop stop-color="#FC8359"/>
<stop offset="1" stop-color="#FCC167"/>
</linearGradient>
</defs>
</svg>
