<svg width="44" height="44" viewBox="0 0 44 44" fill="none" xmlns="http://www.w3.org/2000/svg">
<g clip-path="url(#clip0_31_3670)">
<path d="M43.3368 27.3219C40.3986 39.1077 28.4614 46.2803 16.6742 43.3414C4.89195 40.4031 -2.28068 28.4652 0.658868 16.6804C3.59583 4.89323 15.533 -2.27994 27.3166 0.658314C39.1029 3.59657 46.2753 15.5356 43.3368 27.3219Z" fill="#4F4FDE"/>
<path opacity="0.01" d="M44 0H0V44H44V0Z" fill="#4F4FDE"/>
<path fill-rule="evenodd" clip-rule="evenodd" d="M25.2997 18.7H31.8997V31.9C28.2546 31.9 25.2997 28.9451 25.2997 25.3V18.7ZM18.6997 18.7V12.1001H31.8997V18.7H18.6997ZM12.0997 12.1001H18.6997V18.7C15.0546 18.7 12.0997 15.7451 12.0997 12.1001ZM12.0997 25.3H18.6997V31.9C15.0546 31.9 12.0997 28.9451 12.0997 25.3Z" fill="white"/>
</g>
<defs>
<clipPath id="clip0_31_3670">
<rect width="44" height="44" fill="white"/>
</clipPath>
</defs>
</svg>
