<svg width="260" height="42" viewBox="0 0 260 42" fill="none" xmlns="http://www.w3.org/2000/svg">
<path d="M31.204 32.2879H40.9185V42.0024H31.204V32.2879Z" fill="#4F4FDE"/>
<path d="M0 32.2879H9.71446V42.0024H0V32.2879Z" fill="#4F4FDE"/>
<path d="M31.204 16.6859H40.9185V26.4003H31.204V16.6859Z" fill="#4F4FDE"/>
<path d="M15.602 16.6859H25.3165V26.4003H15.602V16.6859Z" fill="#4F4FDE"/>
<path d="M31.204 1.08386H40.9185V10.7983H31.204V1.08386Z" fill="#4F4FDE"/>
<path d="M15.602 1.08386H25.3165V10.7983H15.602V1.08386Z" fill="#4F4FDE"/>
<path d="M0 1.08386H9.71446V10.7983H0V1.08386Z" fill="#4F4FDE"/>
<path d="M56.2193 33.9977V8.59756H60.8206V30.1405H72.0076V33.9977H56.2193ZM75.8027 33.9977V14.9476H80.2924V33.9977H75.8027ZM78.06 12.2439C77.3489 12.2439 76.737 12.0082 76.2244 11.5369C75.7118 11.0574 75.4555 10.4827 75.4555 9.81299C75.4555 9.135 75.7118 8.56035 76.2244 8.08906C76.737 7.6095 77.3489 7.36972 78.06 7.36972C78.7793 7.36972 79.3912 7.6095 79.8955 8.08906C80.4082 8.56035 80.6645 9.135 80.6645 9.81299C80.6645 10.4827 80.4082 11.0574 79.8955 11.5369C79.3912 12.0082 78.7793 12.2439 78.06 12.2439ZM85.1076 33.9977V8.59756H89.5973V18.0978H89.7833C90.0149 17.6348 90.3414 17.1428 90.7631 16.6219C91.1848 16.0927 91.7553 15.6421 92.4747 15.2701C93.194 14.8897 94.1118 14.6995 95.228 14.6995C96.6997 14.6995 98.0268 15.0757 99.2092 15.8282C100.4 16.5723 101.342 17.6761 102.037 19.1396C102.74 20.5948 103.091 22.3808 103.091 24.4974C103.091 26.5893 102.748 28.367 102.062 29.8305C101.375 31.294 100.441 32.4102 99.2588 33.1791C98.0764 33.9481 96.737 34.3325 95.2404 34.3325C94.149 34.3325 93.2436 34.1506 92.5243 33.7868C91.8049 33.423 91.2262 32.9848 90.7879 32.4722C90.358 31.9513 90.0231 31.4593 89.7833 30.9963H89.5229V33.9977H85.1076ZM89.5105 24.4726C89.5105 25.7046 89.6841 26.7836 90.0314 27.7097C90.3869 28.6357 90.8954 29.3592 91.5569 29.8801C92.2266 30.3927 93.0369 30.649 93.9878 30.649C94.9799 30.649 95.8109 30.3844 96.4806 29.8553C97.1504 29.3178 97.6547 28.5861 97.9937 27.6601C98.341 26.7257 98.5146 25.6633 98.5146 24.4726C98.5146 23.2903 98.3451 22.2402 98.0061 21.3224C97.6671 20.4046 97.1628 19.6853 96.493 19.1644C95.8233 18.6435 94.9882 18.3831 93.9878 18.3831C93.0286 18.3831 92.2142 18.6352 91.5445 19.1396C90.8748 19.644 90.3663 20.3509 90.019 21.2604C89.68 22.1699 89.5105 23.2407 89.5105 24.4726ZM106.908 33.9977V14.9476H111.261V18.1226H111.46C111.807 17.0229 112.402 16.1754 113.246 15.5801C114.097 14.9765 115.069 14.6747 116.16 14.6747C116.408 14.6747 116.685 14.6871 116.991 14.7119C117.305 14.7285 117.566 14.7574 117.772 14.7988V18.9288C117.582 18.8626 117.281 18.8047 116.867 18.7551C116.462 18.6972 116.069 18.6683 115.689 18.6683C114.87 18.6683 114.134 18.8461 113.481 19.2016C112.836 19.5489 112.328 20.0326 111.956 20.6527C111.584 21.2728 111.398 21.988 111.398 22.7983V33.9977H106.908ZM128.404 34.3698C126.494 34.3698 124.845 33.9729 123.456 33.1791C122.075 32.3771 121.013 31.2443 120.268 29.7809C119.524 28.3091 119.152 26.5769 119.152 24.5843C119.152 22.6247 119.524 20.9049 120.268 19.4249C121.021 17.9366 122.071 16.779 123.419 15.9522C124.766 15.1171 126.35 14.6995 128.169 14.6995C129.343 14.6995 130.451 14.8897 131.493 15.2701C132.543 15.6421 133.469 16.2209 134.271 17.0064C135.081 17.7919 135.718 18.7923 136.181 20.0078C136.644 21.2149 136.875 22.6536 136.875 24.3238V25.7005H121.261V22.6743H132.572C132.563 21.8144 132.377 21.0496 132.014 20.3798C131.65 19.7018 131.141 19.1685 130.488 18.7799C129.843 18.3913 129.091 18.197 128.231 18.197C127.313 18.197 126.507 18.4203 125.812 18.8667C125.118 19.305 124.576 19.8837 124.188 20.6031C123.807 21.3142 123.613 22.0955 123.605 22.9471V25.5889C123.605 26.6968 123.807 27.6477 124.212 28.4414C124.618 29.2269 125.184 29.8305 125.912 30.2522C126.639 30.6656 127.491 30.8723 128.466 30.8723C129.12 30.8723 129.711 30.7813 130.24 30.5994C130.769 30.4093 131.228 30.1323 131.617 29.7685C132.005 29.4047 132.299 28.954 132.497 28.4166L136.689 28.8879C136.425 29.9958 135.92 30.9632 135.176 31.7901C134.44 32.6086 133.498 33.2453 132.348 33.7C131.199 34.1465 129.884 34.3698 128.404 34.3698ZM149.535 33.9977V8.59756H159.259C161.094 8.59756 162.62 8.88695 163.835 9.46573C165.059 10.0362 165.972 10.8176 166.576 11.8098C167.188 12.802 167.494 13.9265 167.494 15.1832C167.494 16.2168 167.295 17.1015 166.898 17.8373C166.502 18.565 165.968 19.1561 165.298 19.6109C164.629 20.0656 163.88 20.3922 163.054 20.5907V20.8387C163.955 20.8883 164.819 21.1653 165.646 21.6697C166.481 22.1658 167.163 22.8686 167.692 23.7781C168.221 24.6876 168.486 25.7873 168.486 27.0771C168.486 28.3918 168.168 29.5742 167.531 30.6242C166.894 31.666 165.935 32.4887 164.654 33.0923C163.372 33.6959 161.76 33.9977 159.817 33.9977H149.535ZM154.136 30.1529H159.085C160.755 30.1529 161.958 29.8346 162.694 29.198C163.438 28.553 163.81 27.7262 163.81 26.7175C163.81 25.9651 163.624 25.2871 163.252 24.6835C162.88 24.0716 162.351 23.5921 161.665 23.2448C160.978 22.8893 160.16 22.7115 159.209 22.7115H154.136V30.1529ZM154.136 19.4001H158.688C159.482 19.4001 160.197 19.2554 160.834 18.966C161.47 18.6683 161.97 18.2508 162.334 17.7133C162.706 17.1676 162.892 16.5227 162.892 15.7786C162.892 14.7946 162.545 13.9843 161.851 13.3477C161.164 12.711 160.143 12.3927 158.787 12.3927H154.136V19.4001ZM176.78 8.59756V33.9977H172.29V8.59756H176.78ZM189.706 34.3698C187.846 34.3698 186.234 33.9605 184.869 33.1419C183.505 32.3234 182.447 31.1782 181.694 29.7064C180.95 28.2347 180.578 26.5149 180.578 24.547C180.578 22.5792 180.95 20.8553 181.694 19.3752C182.447 17.8952 183.505 16.7459 184.869 15.9274C186.234 15.1088 187.846 14.6995 189.706 14.6995C191.567 14.6995 193.179 15.1088 194.543 15.9274C195.908 16.7459 196.962 17.8952 197.706 19.3752C198.458 20.8553 198.835 22.5792 198.835 24.547C198.835 26.5149 198.458 28.2347 197.706 29.7064C196.962 31.1782 195.908 32.3234 194.543 33.1419C193.179 33.9605 191.567 34.3698 189.706 34.3698ZM189.731 30.7731C190.74 30.7731 191.583 30.4961 192.261 29.9421C192.939 29.3799 193.444 28.6274 193.774 27.6849C194.113 26.7423 194.283 25.6922 194.283 24.5346C194.283 23.3688 194.113 22.3146 193.774 21.372C193.444 20.4212 192.939 19.6646 192.261 19.1024C191.583 18.5402 190.74 18.259 189.731 18.259C188.698 18.259 187.838 18.5402 187.152 19.1024C186.474 19.6646 185.965 20.4212 185.626 21.372C185.295 22.3146 185.13 23.3688 185.13 24.5346C185.13 25.6922 185.295 26.7423 185.626 27.6849C185.965 28.6274 186.474 29.3799 187.152 29.9421C187.838 30.4961 188.698 30.7731 189.731 30.7731ZM210.955 34.3698C209.053 34.3698 207.42 33.9522 206.056 33.1171C204.7 32.282 203.654 31.1286 202.918 29.6568C202.19 28.1768 201.827 26.4736 201.827 24.547C201.827 22.6123 202.199 20.9049 202.943 19.4249C203.687 17.9366 204.737 16.779 206.093 15.9522C207.457 15.1171 209.07 14.6995 210.93 14.6995C212.476 14.6995 213.845 14.9848 215.035 15.5553C216.234 16.1175 217.189 16.9154 217.9 17.949C218.611 18.9742 219.016 20.1731 219.116 21.5457H214.824C214.651 20.6279 214.237 19.8631 213.584 19.2512C212.939 18.6311 212.075 18.321 210.992 18.321C210.074 18.321 209.268 18.5691 208.574 19.0652C207.879 19.553 207.337 20.2558 206.949 21.1736C206.569 22.0914 206.378 23.1911 206.378 24.4726C206.378 25.7708 206.569 26.887 206.949 27.8213C207.329 28.7473 207.862 29.4625 208.549 29.9669C209.243 30.463 210.058 30.711 210.992 30.711C211.653 30.711 212.245 30.587 212.766 30.339C213.295 30.0827 213.737 29.7147 214.093 29.2352C214.448 28.7556 214.692 28.1727 214.824 27.4864H219.116C219.008 28.8341 218.611 30.0289 217.925 31.0707C217.239 32.1042 216.304 32.9145 215.122 33.5016C213.94 34.0804 212.551 34.3698 210.955 34.3698ZM226.895 28.0197L226.883 22.5999H227.602L234.448 14.9476H239.694L231.273 24.3238H230.343L226.895 28.0197ZM222.802 33.9977V8.59756H227.292V33.9977H222.802ZM234.758 33.9977L228.557 25.3284L231.583 22.1658L240.128 33.9977H234.758ZM257.743 19.983L253.65 20.4295C253.534 20.016 253.332 19.6274 253.042 19.2636C252.761 18.8998 252.381 18.6063 251.901 18.3831C251.422 18.1598 250.835 18.0482 250.14 18.0482C249.206 18.0482 248.42 18.2508 247.784 18.6559C247.155 19.0611 246.845 19.5861 246.854 20.231C246.845 20.785 247.048 21.2356 247.461 21.5829C247.883 21.9301 248.578 22.2154 249.545 22.4386L252.794 23.1332C254.597 23.5218 255.936 24.1378 256.813 24.9811C257.697 25.8245 258.144 26.9283 258.152 28.2926C258.144 29.4915 257.792 30.5498 257.098 31.4676C256.412 32.3771 255.457 33.0882 254.233 33.6008C253.009 34.1134 251.604 34.3698 250.016 34.3698C247.685 34.3698 245.808 33.8819 244.385 32.9063C242.963 31.9223 242.116 30.5539 241.843 28.8011L246.221 28.3794C246.419 29.2393 246.841 29.8884 247.486 30.3266C248.131 30.7648 248.97 30.9839 250.004 30.9839C251.07 30.9839 251.926 30.7648 252.571 30.3266C253.224 29.8884 253.551 29.3468 253.551 28.7019C253.551 28.1561 253.34 27.7055 252.918 27.35C252.505 26.9945 251.86 26.7216 250.984 26.5314L247.734 25.8493C245.907 25.469 244.555 24.8282 243.679 23.9269C242.802 23.0174 242.368 21.8681 242.376 20.4791C242.368 19.305 242.686 18.288 243.331 17.4281C243.984 16.5599 244.89 15.8902 246.047 15.4189C247.213 14.9393 248.557 14.6995 250.078 14.6995C252.311 14.6995 254.068 15.175 255.349 16.1258C256.639 17.0767 257.437 18.3624 257.743 19.983Z" fill="#4F4FDE"/>
</svg>
