<svg width="231" height="35" viewBox="0 0 231 35" fill="none" xmlns="http://www.w3.org/2000/svg">
<path d="M25.3828 25.5702H33.2849V33.4722H25.3828V25.5702Z" fill="url(#paint0_linear_1456_1936)"/>
<path d="M0 25.5702H7.90208V33.4722H0V25.5702Z" fill="url(#paint1_linear_1456_1936)"/>
<path d="M25.3828 12.879H33.2849V20.781H25.3828V12.879Z" fill="url(#paint2_linear_1456_1936)"/>
<path d="M12.6914 12.879H20.5935V20.781H12.6914V12.879Z" fill="url(#paint3_linear_1456_1936)"/>
<path d="M25.3828 0.187744H33.2849V8.08982H25.3828V0.187744Z" fill="url(#paint4_linear_1456_1936)"/>
<path d="M12.6914 0.187744H20.5935V8.08982H12.6914V0.187744Z" fill="url(#paint5_linear_1456_1936)"/>
<path d="M0 0.187744H7.90208V8.08982H0V0.187744Z" fill="url(#paint6_linear_1456_1936)"/>
<path d="M46.6992 27.1211V7.89736H50.1817V24.2019H58.6484V27.1211H46.6992ZM61.5207 27.1211V12.7033H64.9186V27.1211H61.5207ZM63.229 10.657C62.6908 10.657 62.2278 10.4787 61.8398 10.122C61.4518 9.75903 61.2578 9.32412 61.2578 8.81724C61.2578 8.30411 61.4518 7.8692 61.8398 7.51251C62.2278 7.14956 62.6908 6.96808 63.229 6.96808C63.7734 6.96808 64.2365 7.14956 64.6182 7.51251C65.0062 7.8692 65.2002 8.30411 65.2002 8.81724C65.2002 9.32412 65.0062 9.75903 64.6182 10.122C64.2365 10.4787 63.7734 10.657 63.229 10.657ZM68.5629 27.1211V7.89736H71.9609V15.0875H72.1017C72.2769 14.7371 72.5241 14.3647 72.8432 13.9705C73.1624 13.57 73.5942 13.2289 74.1386 12.9473C74.683 12.6595 75.3776 12.5156 76.2224 12.5156C77.3363 12.5156 78.3406 12.8003 79.2355 13.3697C80.1366 13.9329 80.85 14.7683 81.3756 15.876C81.9075 16.9773 82.1735 18.329 82.1735 19.931C82.1735 21.5142 81.9138 22.8596 81.3944 23.9672C80.875 25.0748 80.1679 25.9196 79.273 26.5016C78.3782 27.0835 77.3644 27.3745 76.2318 27.3745C75.4058 27.3745 74.7205 27.2369 74.1761 26.9615C73.6317 26.6862 73.1937 26.3545 72.862 25.9665C72.5366 25.5723 72.2832 25.2 72.1017 24.8495H71.9046V27.1211H68.5629ZM71.8952 19.9122C71.8952 20.8446 72.0266 21.6612 72.2894 22.3621C72.5585 23.063 72.9433 23.6105 73.444 24.0047C73.9508 24.3927 74.5641 24.5867 75.2837 24.5867C76.0347 24.5867 76.6636 24.3865 77.1704 23.986C77.6773 23.5792 78.059 23.0254 78.3156 22.3245C78.5784 21.6174 78.7098 20.8133 78.7098 19.9122C78.7098 19.0173 78.5816 18.2226 78.325 17.528C78.0684 16.8334 77.6867 16.289 77.1798 15.8947C76.673 15.5005 76.0409 15.3034 75.2837 15.3034C74.5578 15.3034 73.9415 15.4942 73.4346 15.876C72.9277 16.2577 72.5429 16.7927 72.28 17.4811C72.0235 18.1694 71.8952 18.9798 71.8952 19.9122ZM85.0622 27.1211V12.7033H88.3569V15.1063H88.5071C88.7699 14.274 89.2205 13.6326 89.8588 13.182C90.5033 12.7252 91.2386 12.4968 92.0646 12.4968C92.2523 12.4968 92.462 12.5062 92.6935 12.525C92.9313 12.5375 93.1284 12.5594 93.2849 12.5907V15.7164C93.1409 15.6663 92.9125 15.6225 92.5996 15.585C92.293 15.5412 91.9958 15.5193 91.7079 15.5193C91.0884 15.5193 90.5315 15.6538 90.0371 15.9229C89.549 16.1857 89.1641 16.5518 88.8826 17.0211C88.601 17.4905 88.4602 18.0318 88.4602 18.645V27.1211H85.0622ZM101.332 27.4027C99.886 27.4027 98.6376 27.1023 97.5863 26.5016C96.5412 25.8946 95.7371 25.0373 95.1739 23.9297C94.6107 22.8158 94.3291 21.5048 94.3291 19.9967C94.3291 18.5136 94.6107 17.212 95.1739 16.0919C95.7434 14.9655 96.5381 14.0894 97.5581 13.4636C98.5781 12.8316 99.7765 12.5156 101.153 12.5156C102.042 12.5156 102.88 12.6595 103.669 12.9473C104.464 13.2289 105.164 13.667 105.771 14.2615C106.385 14.856 106.867 15.6131 107.217 16.533C107.567 17.4467 107.743 18.5355 107.743 19.7996V20.8415H95.9248V18.5511H104.486C104.479 17.9003 104.338 17.3215 104.063 16.8146C103.788 16.3015 103.403 15.8979 102.909 15.6038C102.42 15.3096 101.851 15.1626 101.2 15.1626C100.506 15.1626 99.8954 15.3315 99.3697 15.6695C98.8441 16.0011 98.4342 16.4392 98.1401 16.9836C97.8522 17.5217 97.7052 18.1131 97.6989 18.7576V20.757C97.6989 21.5955 97.8522 22.3152 98.1588 22.9159C98.4655 23.5104 98.8941 23.9672 99.4448 24.2863C99.9955 24.5992 100.64 24.7557 101.379 24.7557C101.873 24.7557 102.32 24.6868 102.721 24.5492C103.121 24.4052 103.469 24.1956 103.763 23.9203C104.057 23.6449 104.279 23.3039 104.429 22.8971L107.602 23.2538C107.402 24.0924 107.02 24.8245 106.457 25.4503C105.9 26.0698 105.186 26.5516 104.317 26.8958C103.447 27.2337 102.452 27.4027 101.332 27.4027ZM117.324 27.1211V7.89736H124.683C126.072 7.89736 127.227 8.11638 128.147 8.55442C129.073 8.9862 129.764 9.57756 130.221 10.3285C130.684 11.0794 130.916 11.9305 130.916 12.8816C130.916 13.6639 130.766 14.3334 130.465 14.8904C130.165 15.4411 129.761 15.8885 129.254 16.2327C128.747 16.5768 128.181 16.824 127.555 16.9742V17.1619C128.237 17.1995 128.891 17.4091 129.517 17.7908C130.149 18.1663 130.665 18.6982 131.066 19.3865C131.466 20.0749 131.667 20.9072 131.667 21.8834C131.667 22.8784 131.426 23.7732 130.944 24.5679C130.462 25.3564 129.736 25.9791 128.766 26.4359C127.796 26.8927 126.576 27.1211 125.105 27.1211H117.324ZM120.806 24.2113H124.552C125.816 24.2113 126.726 23.9703 127.283 23.4885C127.846 23.0004 128.128 22.3746 128.128 21.6112C128.128 21.0417 127.987 20.5286 127.706 20.0718C127.424 19.6087 127.023 19.2457 126.504 18.9829C125.985 18.7138 125.365 18.5793 124.646 18.5793H120.806V24.2113ZM120.806 16.0731H124.251C124.852 16.0731 125.393 15.9636 125.875 15.7446C126.357 15.5193 126.736 15.2033 127.011 14.7965C127.293 14.3835 127.433 13.8954 127.433 13.3322C127.433 12.5875 127.171 11.9743 126.645 11.4924C126.125 11.0106 125.353 10.7697 124.326 10.7697H120.806V16.0731ZM137.944 7.89736V27.1211H134.546V7.89736H137.944ZM147.727 27.4027C146.319 27.4027 145.099 27.0929 144.066 26.4734C143.034 25.8539 142.233 24.9872 141.663 23.8733C141.1 22.7595 140.819 21.4579 140.819 19.9685C140.819 18.4792 141.1 17.1744 141.663 16.0543C142.233 14.9342 143.034 14.0644 144.066 13.4448C145.099 12.8253 146.319 12.5156 147.727 12.5156C149.135 12.5156 150.355 12.8253 151.388 13.4448C152.42 14.0644 153.218 14.9342 153.782 16.0543C154.351 17.1744 154.636 18.4792 154.636 19.9685C154.636 21.4579 154.351 22.7595 153.782 23.8733C153.218 24.9872 152.42 25.8539 151.388 26.4734C150.355 27.0929 149.135 27.4027 147.727 27.4027ZM147.746 24.6806C148.509 24.6806 149.148 24.4709 149.661 24.0517C150.174 23.6262 150.556 23.0567 150.806 22.3433C151.063 21.6299 151.191 20.8352 151.191 19.9591C151.191 19.0768 151.063 18.2789 150.806 17.5655C150.556 16.8459 150.174 16.2733 149.661 15.8478C149.148 15.4223 148.509 15.2095 147.746 15.2095C146.964 15.2095 146.313 15.4223 145.794 15.8478C145.28 16.2733 144.896 16.8459 144.639 17.5655C144.389 18.2789 144.264 19.0768 144.264 19.9591C144.264 20.8352 144.389 21.6299 144.639 22.3433C144.896 23.0567 145.28 23.6262 145.794 24.0517C146.313 24.4709 146.964 24.6806 147.746 24.6806ZM163.809 27.4027C162.369 27.4027 161.134 27.0867 160.101 26.4546C159.075 25.8226 158.283 24.9497 157.726 23.8358C157.176 22.7157 156.9 21.4266 156.9 19.9685C156.9 18.5042 157.182 17.212 157.745 16.0919C158.308 14.9655 159.103 14.0894 160.129 13.4636C161.162 12.8316 162.382 12.5156 163.79 12.5156C164.96 12.5156 165.996 12.7315 166.897 13.1632C167.804 13.5888 168.527 14.1926 169.065 14.9749C169.603 15.7508 169.91 16.6582 169.985 17.697H166.737C166.606 17.0024 166.293 16.4235 165.799 15.9604C165.311 15.4911 164.657 15.2564 163.837 15.2564C163.142 15.2564 162.532 15.4442 162.006 15.8196C161.481 16.1889 161.071 16.7208 160.777 17.4154C160.489 18.11 160.345 18.9422 160.345 19.9122C160.345 20.8947 160.489 21.7395 160.777 22.4466C161.065 23.1474 161.468 23.6887 161.988 24.0705C162.513 24.4459 163.13 24.6336 163.837 24.6336C164.337 24.6336 164.785 24.5398 165.179 24.3521C165.58 24.1581 165.914 23.8796 166.184 23.5166C166.453 23.1537 166.637 22.7125 166.737 22.1931H169.985C169.904 23.2131 169.603 24.1174 169.084 24.9059C168.565 25.6881 167.857 26.3013 166.963 26.7456C166.068 27.1837 165.016 27.4027 163.809 27.4027ZM175.873 22.5968L175.863 18.4948H176.408L181.589 12.7033H185.56L179.186 19.7996H178.482L175.873 22.5968ZM172.775 27.1211V7.89736H176.173V27.1211H172.775ZM181.824 27.1211L177.131 20.5599L179.421 18.1663L185.888 27.1211H181.824ZM199.22 16.5143L196.122 16.8522C196.034 16.5393 195.881 16.2452 195.662 15.9698C195.449 15.6945 195.161 15.4723 194.799 15.3034C194.436 15.1344 193.991 15.0499 193.466 15.0499C192.759 15.0499 192.164 15.2033 191.682 15.5099C191.207 15.8165 190.972 16.2139 190.978 16.702C190.972 17.1213 191.125 17.4623 191.438 17.7251C191.757 17.9879 192.283 18.2038 193.015 18.3728L195.474 18.8984C196.839 19.1926 197.852 19.6588 198.516 20.297C199.185 20.9353 199.523 21.7707 199.529 22.8033C199.523 23.7106 199.257 24.5116 198.732 25.2062C198.212 25.8946 197.489 26.4327 196.563 26.8207C195.637 27.2087 194.573 27.4027 193.372 27.4027C191.607 27.4027 190.187 27.0335 189.11 26.2951C188.034 25.5504 187.393 24.5148 187.186 23.1881L190.499 22.869C190.65 23.5198 190.969 24.011 191.457 24.3427C191.945 24.6743 192.58 24.8402 193.362 24.8402C194.17 24.8402 194.817 24.6743 195.305 24.3427C195.8 24.011 196.047 23.6011 196.047 23.113C196.047 22.7 195.887 22.359 195.568 22.0899C195.255 21.8208 194.767 21.6143 194.104 21.4704L191.645 20.9541C190.262 20.6663 189.239 20.1813 188.575 19.4992C187.912 18.8108 187.583 17.941 187.59 16.8897C187.583 16.0011 187.824 15.2314 188.312 14.5806C188.807 13.9236 189.492 13.4167 190.368 13.06C191.25 12.697 192.267 12.5156 193.419 12.5156C195.108 12.5156 196.438 12.8754 197.408 13.595C198.384 14.3147 198.988 15.2877 199.22 16.5143Z" fill="white"/>
<rect x="202" y="21" width="29" height="13.05" rx="6.525" fill="url(#paint7_linear_1456_1936)"/>
<path d="M208.37 30.4499V24.7222H210.562C210.976 24.7222 211.32 24.7874 211.594 24.9179C211.87 25.0466 212.076 25.2228 212.212 25.4465C212.35 25.6703 212.419 25.9238 212.419 26.2072C212.419 26.4403 212.375 26.6398 212.285 26.8057C212.196 26.9698 212.075 27.1031 211.924 27.2057C211.773 27.3082 211.605 27.3819 211.418 27.4266V27.4826C211.621 27.4937 211.816 27.5562 212.003 27.6699C212.191 27.7818 212.345 27.9403 212.464 28.1454C212.583 28.3505 212.643 28.5985 212.643 28.8893C212.643 29.1858 212.571 29.4524 212.428 29.6892C212.284 29.9241 212.068 30.1096 211.779 30.2457C211.49 30.3818 211.126 30.4499 210.688 30.4499H208.37ZM209.407 29.5829H210.523C210.9 29.5829 211.171 29.5111 211.337 29.3676C211.505 29.2221 211.589 29.0357 211.589 28.8082C211.589 28.6385 211.547 28.4857 211.463 28.3495C211.379 28.2116 211.26 28.1034 211.105 28.0251C210.95 27.9449 210.765 27.9049 210.551 27.9049H209.407V29.5829ZM209.407 27.1581H210.434C210.613 27.1581 210.774 27.1255 210.917 27.0602C211.061 26.9931 211.174 26.899 211.256 26.7778C211.34 26.6547 211.382 26.5093 211.382 26.3415C211.382 26.1196 211.303 25.9369 211.147 25.7933C210.992 25.6498 210.762 25.578 210.456 25.578H209.407V27.1581ZM215.403 30.5338C214.972 30.5338 214.6 30.4443 214.287 30.2653C213.975 30.0845 213.736 29.829 213.568 29.499C213.4 29.1671 213.316 28.7765 213.316 28.3272C213.316 27.8853 213.4 27.4975 213.568 27.1637C213.738 26.8281 213.975 26.5671 214.278 26.3806C214.582 26.1923 214.939 26.0982 215.35 26.0982C215.614 26.0982 215.864 26.1411 216.099 26.2268C216.336 26.3107 216.545 26.4412 216.726 26.6184C216.908 26.7955 217.052 27.0211 217.156 27.2952C217.261 27.5674 217.313 27.8918 217.313 28.2684V28.5789H213.792V27.8965H216.342C216.341 27.7026 216.299 27.5301 216.217 27.3791C216.135 27.2262 216.02 27.1059 215.873 27.0183C215.727 26.9307 215.557 26.8869 215.364 26.8869C215.157 26.8869 214.975 26.9372 214.818 27.0379C214.662 27.1367 214.539 27.2672 214.452 27.4294C214.366 27.5898 214.322 27.766 214.32 27.958V28.5537C214.32 28.8035 214.366 29.018 214.457 29.197C214.549 29.3741 214.676 29.5102 214.841 29.6053C215.005 29.6985 215.197 29.7451 215.417 29.7451C215.564 29.7451 215.697 29.7246 215.817 29.6836C215.936 29.6407 216.039 29.5782 216.127 29.4962C216.215 29.4142 216.281 29.3126 216.326 29.1914L217.271 29.2976C217.211 29.5475 217.098 29.7656 216.93 29.9521C216.764 30.1367 216.551 30.2802 216.292 30.3828C216.033 30.4835 215.736 30.5338 215.403 30.5338ZM220.314 26.1541V26.9372H217.845V26.1541H220.314ZM218.455 25.1249H219.467V29.1578C219.467 29.2939 219.488 29.3983 219.529 29.471C219.571 29.5419 219.627 29.5904 219.696 29.6165C219.765 29.6426 219.842 29.6556 219.926 29.6556C219.989 29.6556 220.047 29.651 220.099 29.6416C220.153 29.6323 220.194 29.6239 220.222 29.6165L220.393 30.4079C220.339 30.4266 220.261 30.4471 220.161 30.4695C220.062 30.4918 219.941 30.5049 219.797 30.5086C219.544 30.5161 219.315 30.4779 219.112 30.394C218.909 30.3082 218.747 30.1758 218.628 29.9968C218.511 29.8178 218.453 29.5941 218.455 29.3256V25.1249ZM222.397 30.5366C222.125 30.5366 221.88 30.4881 221.662 30.3912C221.446 30.2923 221.274 30.1469 221.147 29.9549C221.022 29.7628 220.96 29.526 220.96 29.2445C220.96 29.0021 221.005 28.8017 221.094 28.6432C221.184 28.4847 221.306 28.3579 221.46 28.2628C221.615 28.1678 221.79 28.096 221.983 28.0475C222.179 27.9972 222.381 27.9608 222.59 27.9384C222.842 27.9123 223.046 27.889 223.203 27.8685C223.359 27.8461 223.473 27.8126 223.544 27.7678C223.617 27.7212 223.653 27.6494 223.653 27.5525V27.5357C223.653 27.325 223.591 27.1619 223.466 27.0463C223.341 26.9307 223.161 26.8729 222.926 26.8729C222.678 26.8729 222.481 26.9269 222.336 27.0351C222.192 27.1432 222.095 27.2709 222.045 27.4182L221.1 27.284C221.174 27.023 221.297 26.8048 221.469 26.6296C221.64 26.4524 221.85 26.32 222.098 26.2324C222.346 26.1429 222.62 26.0982 222.92 26.0982C223.127 26.0982 223.333 26.1224 223.538 26.1709C223.744 26.2194 223.931 26.2995 224.101 26.4114C224.27 26.5214 224.406 26.6715 224.509 26.8617C224.613 27.0519 224.665 27.2896 224.665 27.5748V30.4499H223.692V29.8598H223.659C223.597 29.9791 223.51 30.091 223.399 30.1954C223.289 30.2979 223.15 30.3809 222.982 30.4443C222.816 30.5058 222.621 30.5366 222.397 30.5366ZM222.66 29.7927C222.863 29.7927 223.04 29.7526 223.189 29.6724C223.338 29.5904 223.453 29.4822 223.533 29.348C223.615 29.2137 223.656 29.0674 223.656 28.9089V28.4027C223.624 28.4288 223.57 28.453 223.494 28.4754C223.419 28.4978 223.335 28.5173 223.242 28.5341C223.149 28.5509 223.056 28.5658 222.965 28.5789C222.874 28.5919 222.794 28.6031 222.727 28.6124C222.576 28.6329 222.441 28.6665 222.322 28.7131C222.203 28.7597 222.108 28.825 222.039 28.9089C221.97 28.9909 221.936 29.0972 221.936 29.2277C221.936 29.4142 222.004 29.5549 222.14 29.65C222.276 29.7451 222.45 29.7927 222.66 29.7927Z" fill="white"/>
<defs>
<linearGradient id="paint0_linear_1456_1936" x1="-0.169404" y1="-0.151898" x2="32.7754" y2="-0.151898" gradientUnits="userSpaceOnUse">
<stop stop-color="#FF8C00"/>
<stop offset="1" stop-color="#FF6200"/>
</linearGradient>
<linearGradient id="paint1_linear_1456_1936" x1="-0.169819" y1="-0.151898" x2="32.775" y2="-0.151898" gradientUnits="userSpaceOnUse">
<stop stop-color="#FF8C00"/>
<stop offset="1" stop-color="#FF6200"/>
</linearGradient>
<linearGradient id="paint2_linear_1456_1936" x1="-0.169404" y1="-0.151866" x2="32.7754" y2="-0.151866" gradientUnits="userSpaceOnUse">
<stop stop-color="#FF8C00"/>
<stop offset="1" stop-color="#FF6200"/>
</linearGradient>
<linearGradient id="paint3_linear_1456_1936" x1="-0.169612" y1="-0.151866" x2="32.7752" y2="-0.151866" gradientUnits="userSpaceOnUse">
<stop stop-color="#FF8C00"/>
<stop offset="1" stop-color="#FF6200"/>
</linearGradient>
<linearGradient id="paint4_linear_1456_1936" x1="-0.169404" y1="-0.151893" x2="32.7754" y2="-0.151893" gradientUnits="userSpaceOnUse">
<stop stop-color="#FF8C00"/>
<stop offset="1" stop-color="#FF6200"/>
</linearGradient>
<linearGradient id="paint5_linear_1456_1936" x1="-0.169612" y1="-0.151893" x2="32.7752" y2="-0.151893" gradientUnits="userSpaceOnUse">
<stop stop-color="#FF8C00"/>
<stop offset="1" stop-color="#FF6200"/>
</linearGradient>
<linearGradient id="paint6_linear_1456_1936" x1="-0.169819" y1="-0.151893" x2="32.775" y2="-0.151893" gradientUnits="userSpaceOnUse">
<stop stop-color="#FF8C00"/>
<stop offset="1" stop-color="#FF6200"/>
</linearGradient>
<linearGradient id="paint7_linear_1456_1936" x1="236.043" y1="17.2174" x2="197.587" y2="37.3913" gradientUnits="userSpaceOnUse">
<stop stop-color="#FF6300"/>
<stop offset="1" stop-color="#FF8A00"/>
</linearGradient>
</defs>
</svg>
