<svg width="75" height="76" viewBox="0 0 75 76" fill="none" xmlns="http://www.w3.org/2000/svg">
<path d="M37.5 75C58.2107 75 75 58.2107 75 37.5C75 16.7893 58.2107 0 37.5 0C16.7893 0 0 16.7893 0 37.5C0 58.2107 16.7893 75 37.5 75Z" fill="#3861FB"/>
<path d="M65.1947 45.3378C63.9869 46.1593 62.4156 46.2618 61.1039 45.6072C59.5975 44.76 58.7792 42.7836 58.7792 40.1009V31.848C58.7792 27.8819 57.1947 25.071 54.5325 24.3008C50.0519 23.0045 46.7014 28.4338 45.4156 30.4746L37.4806 43.1685V27.6765C37.3897 24.1083 36.2208 21.9648 33.9869 21.3231C32.5194 20.8995 30.3117 21.0664 28.1689 24.3008L10.4286 52.4483C8.06494 47.9945 6.83117 43.0273 6.85714 37.996C6.85714 21.0279 20.5714 7.23002 37.4806 7.23002C54.3897 7.23002 68.1428 21.0279 68.1428 37.996V38.0857C68.1428 38.0857 68.1428 38.1501 68.1428 38.1757C68.3117 41.4486 67.2339 44.0669 65.1947 45.3378ZM75 37.996V37.8292C74.8572 17.1645 58.0781 0.388851 37.4806 0.388851C16.8831 0.388851 0 17.2543 0 37.996C0 58.7376 16.8052 75.6032 37.4806 75.6032C46.9611 75.6032 56.0781 72.0093 62.9611 65.566C64.3506 64.2698 64.4286 62.1134 63.1428 60.7272C61.8961 59.3666 59.7792 59.2638 58.3897 60.4962L58.3767 60.5091C46.2339 71.8937 27.0519 71.3931 15.5325 59.3923C15.2467 59.097 14.974 58.802 14.7013 58.4939L30.6622 33.1185V44.8244C30.6622 50.4462 32.87 52.2686 34.7142 52.808C36.5583 53.347 39.4025 52.9748 42.3636 48.2129L51.1947 34.0941C51.4675 33.6447 51.7272 33.2469 51.9739 32.9132V40.0881C51.9739 45.3506 54.1039 49.5476 57.8572 51.6271C61.3247 53.4751 65.5325 53.3083 68.8442 51.1906C72.9611 48.5466 75.2078 43.7591 74.9742 37.996H75Z" fill="white"/>
</svg>
