<svg width="32" height="32" viewBox="0 0 32 32" fill="none" xmlns="http://www.w3.org/2000/svg">
<g clip-path="url(#clip0_101_39)">
<path d="M31.5211 19.8706C29.3839 28.442 20.7014 33.6585 12.128 31.521C3.55811 29.384 -1.65895 20.7021 0.479281 12.1312C2.61551 3.55876 11.2979 -1.65819 19.8689 0.478793C28.4418 2.61577 33.6583 11.2987 31.5211 19.8706V19.8706Z" fill="#1A4BF7"/>
<path d="M5.65828 19V13.0081H7.85257C8.27777 13.0081 8.62983 13.0784 8.90875 13.2188C9.18767 13.3573 9.39637 13.5455 9.53485 13.7835C9.67334 14.0195 9.74258 14.2857 9.74258 14.5822C9.74258 14.8318 9.69674 15.0425 9.60507 15.2141C9.5134 15.3838 9.39052 15.5204 9.23643 15.6237C9.08429 15.7252 8.91655 15.7993 8.73321 15.8461V15.9046C8.93216 15.9144 9.12623 15.9787 9.31542 16.0977C9.50657 16.2147 9.66456 16.3815 9.78939 16.598C9.91422 16.8145 9.97663 17.0778 9.97663 17.3879C9.97663 17.6942 9.90447 17.9692 9.76013 18.213C9.61775 18.4548 9.39734 18.647 9.09892 18.7893C8.8005 18.9298 8.41918 19 7.95497 19H5.65828ZM6.56233 18.2247H7.8672C8.3002 18.2247 8.61033 18.1408 8.79757 17.9731C8.98482 17.8053 9.07844 17.5957 9.07844 17.344C9.07844 17.1549 9.03065 16.9813 8.93508 16.8233C8.83951 16.6653 8.70297 16.5395 8.52548 16.4459C8.34994 16.3522 8.14124 16.3054 7.89938 16.3054H6.56233V18.2247ZM6.56233 15.6003H7.77357C7.97642 15.6003 8.15879 15.5613 8.32068 15.4833C8.48452 15.4053 8.61423 15.296 8.7098 15.1556C8.80733 15.0132 8.85609 14.8455 8.85609 14.6524C8.85609 14.4047 8.76929 14.197 8.5957 14.0292C8.42211 13.8615 8.15587 13.7776 7.79698 13.7776H6.56233V15.6003ZM11.5551 19H10.5954L12.7517 13.0081H13.7961L15.9524 19H14.9928L13.2988 14.0965H13.252L11.5551 19ZM11.716 16.6536H14.8289V17.4143H11.716V16.6536ZM20.0374 14.5822C20.0062 14.3052 19.8775 14.0907 19.6512 13.9385C19.425 13.7844 19.1402 13.7074 18.7969 13.7074C18.5512 13.7074 18.3386 13.7464 18.1591 13.8244C17.9797 13.9005 17.8402 14.0058 17.7407 14.1404C17.6432 14.273 17.5945 14.4242 17.5945 14.5939C17.5945 14.7363 17.6276 14.8591 17.6939 14.9625C17.7622 15.0659 17.8509 15.1527 17.9602 15.2229C18.0713 15.2912 18.1903 15.3487 18.3171 15.3955C18.4439 15.4404 18.5658 15.4774 18.6828 15.5067L19.268 15.6588C19.4591 15.7056 19.6551 15.769 19.856 15.849C20.0569 15.929 20.2432 16.0343 20.4148 16.165C20.5865 16.2957 20.725 16.4576 20.8303 16.6507C20.9376 16.8438 20.9912 17.0749 20.9912 17.344C20.9912 17.6834 20.9034 17.9848 20.7279 18.2481C20.5543 18.5114 20.3017 18.7191 19.9701 18.8713C19.6405 19.0234 19.2416 19.0995 18.7735 19.0995C18.3249 19.0995 17.9368 19.0283 17.6091 18.8859C17.2814 18.7435 17.0249 18.5416 16.8396 18.2803C16.6543 18.017 16.5519 17.7049 16.5324 17.344H17.4394C17.4569 17.5606 17.5272 17.741 17.65 17.8853C17.7749 18.0277 17.9338 18.134 18.1269 18.2042C18.322 18.2725 18.5356 18.3066 18.7677 18.3066C19.0232 18.3066 19.2504 18.2666 19.4494 18.1867C19.6503 18.1047 19.8082 17.9916 19.9233 17.8473C20.0384 17.701 20.0959 17.5303 20.0959 17.3353C20.0959 17.1578 20.0452 17.0125 19.9438 16.8993C19.8443 16.7862 19.7088 16.6926 19.5371 16.6185C19.3674 16.5444 19.1753 16.479 18.9608 16.4224L18.2527 16.2294C17.7729 16.0987 17.3926 15.9065 17.1117 15.653C16.8328 15.3994 16.6933 15.0639 16.6933 14.6465C16.6933 14.3013 16.787 14 16.9742 13.7425C17.1614 13.485 17.415 13.2851 17.7349 13.1427C18.0548 12.9984 18.4156 12.9262 18.8174 12.9262C19.2231 12.9262 19.581 12.9974 19.8911 13.1398C20.2032 13.2822 20.449 13.4782 20.6284 13.7279C20.8079 13.9756 20.9015 14.2603 20.9093 14.5822H20.0374ZM22.0715 19V13.0081H25.8281V13.7864H22.9756V15.612H25.6321V16.3873H22.9756V18.2218H25.8632V19H22.0715Z" fill="white"/>
</g>
<defs>
<clipPath id="clip0_101_39">
<rect width="32" height="32" fill="white"/>
</clipPath>
</defs>
</svg>
