<svg width="32" height="32" viewBox="0 0 32 32" fill="none" xmlns="http://www.w3.org/2000/svg">
<g clip-path="url(#clip0_125_85)">
<path d="M31.5211 19.8706C29.3839 28.442 20.7014 33.6585 12.128 31.521C3.55811 29.384 -1.65895 20.7021 0.479281 12.1312C2.61551 3.55876 11.2979 -1.65819 19.8689 0.478793C28.4418 2.61577 33.6583 11.2987 31.5211 19.8706V19.8706Z" fill="#1A4BF7"/>
<path d="M6.65828 19V13.0081H8.85257C9.27777 13.0081 9.62983 13.0784 9.90875 13.2188C10.1877 13.3573 10.3964 13.5455 10.5349 13.7835C10.6733 14.0195 10.7426 14.2857 10.7426 14.5822C10.7426 14.8318 10.6967 15.0425 10.6051 15.2141C10.5134 15.3838 10.3905 15.5204 10.2364 15.6237C10.0843 15.7252 9.91655 15.7993 9.73321 15.8461V15.9046C9.93216 15.9144 10.1262 15.9787 10.3154 16.0977C10.5066 16.2147 10.6646 16.3815 10.7894 16.598C10.9142 16.8145 10.9766 17.0778 10.9766 17.3879C10.9766 17.6942 10.9045 17.9692 10.7601 18.213C10.6177 18.4548 10.3973 18.647 10.0989 18.7893C9.8005 18.9298 9.41918 19 8.95497 19H6.65828ZM7.56233 18.2247H8.8672C9.3002 18.2247 9.61033 18.1408 9.79757 17.9731C9.98482 17.8053 10.0784 17.5957 10.0784 17.344C10.0784 17.1549 10.0307 16.9813 9.93508 16.8233C9.83951 16.6653 9.70297 16.5395 9.52548 16.4459C9.34994 16.3522 9.14124 16.3054 8.89938 16.3054H7.56233V18.2247ZM7.56233 15.6003H8.77357C8.97642 15.6003 9.15879 15.5613 9.32068 15.4833C9.48452 15.4053 9.61423 15.296 9.7098 15.1556C9.80733 15.0132 9.85609 14.8455 9.85609 14.6524C9.85609 14.4047 9.76929 14.197 9.5957 14.0292C9.42211 13.8615 9.15587 13.7776 8.79698 13.7776H7.56233V15.6003ZM12.0489 19V13.0081H15.7646V13.7864H12.953V15.612H15.4983V16.3873H12.953V19H12.0489ZM16.8763 19V13.0081H20.592V13.7864H17.7804V15.612H20.3257V16.3873H17.7804V19H16.8763ZM21.2415 13.0081H22.2684L23.8337 15.732H23.898L25.4633 13.0081H26.4902L24.3164 16.6477V19H23.4153V16.6477L21.2415 13.0081Z" fill="white"/>
</g>
<defs>
<clipPath id="clip0_125_85">
<rect width="32" height="32" fill="white"/>
</clipPath>
</defs>
</svg>
