<svg width="32" height="32" viewBox="0 0 32 32" fill="none" xmlns="http://www.w3.org/2000/svg">
<g clip-path="url(#clip0_125_79)">
<path d="M31.5211 19.8706C29.3839 28.442 20.7014 33.6585 12.128 31.521C3.55811 29.384 -1.65895 20.7021 0.479281 12.1312C2.61551 3.55876 11.2979 -1.65819 19.8689 0.478793C28.4418 2.61577 33.6583 11.2987 31.5211 19.8706V19.8706Z" fill="#1A4BF7"/>
<path d="M10.6583 19V13.0081H12.8526C13.2778 13.0081 13.6298 13.0784 13.9087 13.2188C14.1877 13.3573 14.3964 13.5455 14.5349 13.7835C14.6733 14.0195 14.7426 14.2857 14.7426 14.5822C14.7426 14.8318 14.6967 15.0425 14.6051 15.2141C14.5134 15.3838 14.3905 15.5204 14.2364 15.6237C14.0843 15.7252 13.9166 15.7993 13.7332 15.8461V15.9046C13.9322 15.9144 14.1262 15.9787 14.3154 16.0977C14.5066 16.2147 14.6646 16.3815 14.7894 16.598C14.9142 16.8145 14.9766 17.0778 14.9766 17.3879C14.9766 17.6942 14.9045 17.9692 14.7601 18.213C14.6177 18.4548 14.3973 18.647 14.0989 18.7893C13.8005 18.9298 13.4192 19 12.955 19H10.6583ZM11.5623 18.2247H12.8672C13.3002 18.2247 13.6103 18.1408 13.7976 17.9731C13.9848 17.8053 14.0784 17.5957 14.0784 17.344C14.0784 17.1549 14.0307 16.9813 13.9351 16.8233C13.8395 16.6653 13.703 16.5395 13.5255 16.4459C13.3499 16.3522 13.1412 16.3054 12.8994 16.3054H11.5623V18.2247ZM11.5623 15.6003H12.7736C12.9764 15.6003 13.1588 15.5613 13.3207 15.4833C13.4845 15.4053 13.6142 15.296 13.7098 15.1556C13.8073 15.0132 13.8561 14.8455 13.8561 14.6524C13.8561 14.4047 13.7693 14.197 13.5957 14.0292C13.4221 13.8615 13.1559 13.7776 12.797 13.7776H11.5623V15.6003ZM16.953 13.0081V19H16.0489V13.0081H16.953ZM17.974 13.7864V13.0081H22.6113V13.7864H20.7417V19H19.8406V13.7864H17.974Z" fill="white"/>
</g>
<defs>
<clipPath id="clip0_125_79">
<rect width="32" height="32" fill="white"/>
</clipPath>
</defs>
</svg>
