<svg width="32" height="32" viewBox="0 0 32 32" fill="none" xmlns="http://www.w3.org/2000/svg">
<g clip-path="url(#clip0_125_55)">
<path d="M31.5211 19.8706C29.3839 28.442 20.7014 33.6585 12.128 31.521C3.55811 29.384 -1.65895 20.7021 0.479281 12.1312C2.61551 3.55876 11.2979 -1.65819 19.8689 0.478793C28.4418 2.61577 33.6583 11.2987 31.5211 19.8706V19.8706Z" fill="#1A4BF7"/>
<path d="M6.65828 19V13.0081H8.85257C9.27777 13.0081 9.62983 13.0784 9.90875 13.2188C10.1877 13.3573 10.3964 13.5455 10.5349 13.7835C10.6733 14.0195 10.7426 14.2857 10.7426 14.5822C10.7426 14.8318 10.6967 15.0425 10.6051 15.2141C10.5134 15.3838 10.3905 15.5204 10.2364 15.6237C10.0843 15.7252 9.91655 15.7993 9.73321 15.8461V15.9046C9.93216 15.9144 10.1262 15.9787 10.3154 16.0977C10.5066 16.2147 10.6646 16.3815 10.7894 16.598C10.9142 16.8145 10.9766 17.0778 10.9766 17.3879C10.9766 17.6942 10.9045 17.9692 10.7601 18.213C10.6177 18.4548 10.3973 18.647 10.0989 18.7893C9.8005 18.9298 9.41918 19 8.95497 19H6.65828ZM7.56233 18.2247H8.8672C9.3002 18.2247 9.61033 18.1408 9.79757 17.9731C9.98482 17.8053 10.0784 17.5957 10.0784 17.344C10.0784 17.1549 10.0307 16.9813 9.93508 16.8233C9.83951 16.6653 9.70297 16.5395 9.52548 16.4459C9.34994 16.3522 9.14124 16.3054 8.89938 16.3054H7.56233V18.2247ZM7.56233 15.6003H8.77357C8.97642 15.6003 9.15879 15.5613 9.32068 15.4833C9.48452 15.4053 9.61423 15.296 9.7098 15.1556C9.80733 15.0132 9.85609 14.8455 9.85609 14.6524C9.85609 14.4047 9.76929 14.197 9.5957 14.0292C9.42211 13.8615 9.15587 13.7776 8.79698 13.7776H7.56233V15.6003ZM17.2537 16.0041C17.2537 16.6438 17.1367 17.1939 16.9027 17.6542C16.6686 18.1125 16.3478 18.4656 15.9401 18.7133C15.5344 18.959 15.0731 19.0819 14.5562 19.0819C14.0374 19.0819 13.5742 18.959 13.1665 18.7133C12.7608 18.4656 12.441 18.1116 12.2069 17.6512C11.9728 17.1909 11.8558 16.6419 11.8558 16.0041C11.8558 15.3643 11.9728 14.8153 12.2069 14.3569C12.441 13.8966 12.7608 13.5435 13.1665 13.2978C13.5742 13.0501 14.0374 12.9262 14.5562 12.9262C15.0731 12.9262 15.5344 13.0501 15.9401 13.2978C16.3478 13.5435 16.6686 13.8966 16.9027 14.3569C17.1367 14.8153 17.2537 15.3643 17.2537 16.0041ZM16.3585 16.0041C16.3585 15.5165 16.2795 15.1059 16.1215 14.7723C15.9655 14.4369 15.7509 14.1833 15.4778 14.0117C15.2067 13.8381 14.8995 13.7513 14.5562 13.7513C14.211 13.7513 13.9028 13.8381 13.6317 14.0117C13.3606 14.1833 13.146 14.4369 12.9881 14.7723C12.832 15.1059 12.754 15.5165 12.754 16.0041C12.754 16.4917 12.832 16.9032 12.9881 17.2387C13.146 17.5723 13.3606 17.8258 13.6317 17.9994C13.9028 18.171 14.211 18.2569 14.5562 18.2569C14.8995 18.2569 15.2067 18.171 15.4778 17.9994C15.7509 17.8258 15.9655 17.5723 16.1215 17.2387C16.2795 16.9032 16.3585 16.4917 16.3585 16.0041ZM18.3809 19V13.0081H19.2849V18.2218H22V19H18.3809ZM21.9554 13.7864V13.0081H26.5926V13.7864H24.7231V19H23.822V13.7864H21.9554Z" fill="white"/>
</g>
<defs>
<clipPath id="clip0_125_55">
<rect width="32" height="32" fill="white"/>
</clipPath>
</defs>
</svg>
