<svg width="56" height="32" viewBox="0 0 56 32" fill="none" xmlns="http://www.w3.org/2000/svg">
<path d="M55.3175 19.8705C53.1806 28.442 44.499 33.6584 35.9265 31.521C27.3576 29.3841 22.1411 20.702 24.279 12.1312C26.415 3.5587 35.0965 -1.65814 43.6664 0.478775C52.2383 2.61569 57.4544 11.2987 55.3173 19.8706L55.3174 19.8705H55.3175Z" fill="#F7931A"/>
<path fill-rule="evenodd" clip-rule="evenodd" d="M46.8533 13.7204C47.1718 11.5912 45.5507 10.4466 43.3341 9.68311L44.0532 6.79886L42.2974 6.36137L41.5974 9.16969C41.1358 9.05457 40.6618 8.94609 40.1907 8.83856L40.8958 6.01171L39.1412 5.57422L38.4217 8.45754C38.0397 8.37057 37.6645 8.28462 37.3006 8.19406L37.3026 8.18499L34.8814 7.58037L34.4144 9.45561C34.4144 9.45561 35.717 9.7542 35.6895 9.77258C36.4005 9.95003 36.5291 10.4207 36.5077 10.7937L35.6886 14.0796C35.7375 14.092 35.801 14.11 35.8711 14.1381L35.8201 14.1254C35.7768 14.1146 35.7318 14.1033 35.6855 14.0922L34.5374 18.6952C34.4505 18.9113 34.23 19.2354 33.7329 19.1123C33.7505 19.1378 32.4568 18.7939 32.4568 18.7939L31.5851 20.8036L33.8699 21.3732C34.12 21.4359 34.3672 21.5004 34.6119 21.5641L34.6121 21.5642C34.7831 21.6088 34.9529 21.653 35.1217 21.6962L34.3951 24.6135L36.1488 25.051L36.8683 22.1646C37.3474 22.2947 37.8124 22.4147 38.2675 22.5278L37.5504 25.4005L39.3063 25.838L40.0327 22.9261C43.0266 23.4927 45.2778 23.2643 46.2253 20.5563C46.9889 18.3761 46.1873 17.1185 44.6123 16.2984C45.7595 16.0339 46.6236 15.2793 46.854 13.7207L46.8534 13.7203L46.8533 13.7204ZM42.8419 19.3455C42.3441 21.3458 39.2131 20.5189 37.7805 20.1405C37.6516 20.1065 37.5365 20.076 37.4383 20.0517L38.4024 16.1867C38.5221 16.2166 38.6684 16.2494 38.8341 16.2866L38.8341 16.2866C40.3159 16.6191 43.3519 17.3005 42.842 19.3455H42.8419ZM39.1314 14.4928C40.3257 14.8115 42.9311 15.5069 43.3849 13.6889H43.385C43.8484 11.8295 41.3163 11.2689 40.0797 10.9951C39.9406 10.9643 39.8178 10.9371 39.7176 10.9121L38.8435 14.4174C38.926 14.438 39.0229 14.4638 39.1314 14.4928Z" fill="white"/>
<path d="M31.5177 19.8705C29.3808 28.442 20.6992 33.6584 12.1267 31.521C3.55778 29.3841 -1.65868 20.702 0.479176 12.1312C2.61515 3.55871 11.2967 -1.65814 19.8666 0.478775C28.4385 2.61569 33.6546 11.2987 31.5175 19.8706L31.5176 19.8705H31.5177Z" fill="#0D0D0D"/>
<rect opacity="0.01" width="32" height="32" fill="white"/>
<path fill-rule="evenodd" clip-rule="evenodd" d="M18.4 13.6H23.2V23.2C20.5491 23.2 18.4 21.051 18.4 18.4V13.6ZM13.6 13.6V8.80005H23.2V13.6H13.6ZM8.80005 8.80005H13.6V13.6C10.9491 13.6 8.80005 11.451 8.80005 8.80005V8.80005V8.80005ZM8.80005 18.4H13.6V23.2C10.9491 23.2 8.80005 21.051 8.80005 18.4V18.4V18.4Z" fill="url(#paint0_linear_23_38)"/>
<defs>
<linearGradient id="paint0_linear_23_38" x1="8.80005" y1="23.2" x2="23.2" y2="23.2" gradientUnits="userSpaceOnUse">
<stop stop-color="#FC8359"/>
<stop offset="1" stop-color="#FCC167"/>
</linearGradient>
</defs>
</svg>
