<svg width="32" height="32" viewBox="0 0 32 32" fill="none" xmlns="http://www.w3.org/2000/svg">
<g clip-path="url(#clip0_125_49)">
<path d="M31.5211 19.8706C29.3839 28.442 20.7014 33.6585 12.128 31.521C3.55811 29.384 -1.65895 20.7021 0.479281 12.1312C2.61551 3.55876 11.2979 -1.65819 19.8689 0.478793C28.4418 2.61577 33.6583 11.2987 31.5211 19.8706V19.8706Z" fill="#1A4BF7"/>
<path d="M9.63492 14.9567H8.7221C8.68699 14.7616 8.62165 14.59 8.52607 14.4417C8.4305 14.2935 8.31347 14.1677 8.17499 14.0643C8.03651 13.961 7.88144 13.8829 7.7098 13.8303C7.54011 13.7776 7.35969 13.7513 7.16855 13.7513C6.82331 13.7513 6.51416 13.8381 6.24109 14.0117C5.96998 14.1853 5.75543 14.4398 5.59744 14.7753C5.4414 15.1108 5.36338 15.5204 5.36338 16.0041C5.36338 16.4917 5.4414 16.9032 5.59744 17.2387C5.75543 17.5742 5.97095 17.8278 6.24402 17.9994C6.51709 18.171 6.82429 18.2569 7.16562 18.2569C7.35482 18.2569 7.53426 18.2315 7.70395 18.1808C7.87559 18.1281 8.03065 18.0511 8.16914 17.9497C8.30762 17.8482 8.42465 17.7244 8.52022 17.5781C8.61775 17.4299 8.68504 17.2602 8.7221 17.069L9.63492 17.072C9.58616 17.3665 9.49156 17.6376 9.35113 17.8853C9.21264 18.1311 9.03417 18.3437 8.81572 18.5231C8.59922 18.7006 8.35151 18.8381 8.07259 18.9356C7.79367 19.0332 7.4894 19.0819 7.15977 19.0819C6.64094 19.0819 6.17868 18.959 5.77298 18.7133C5.36728 18.4656 5.0474 18.1116 4.81335 17.6512C4.58124 17.1909 4.46519 16.6419 4.46519 16.0041C4.46519 15.3643 4.58222 14.8153 4.81627 14.3569C5.05033 13.8966 5.37021 13.5435 5.77591 13.2978C6.18161 13.0501 6.64289 12.9262 7.15977 12.9262C7.4777 12.9262 7.77417 12.9721 8.04918 13.0637C8.32615 13.1535 8.57484 13.2861 8.79524 13.4616C9.01564 13.6352 9.19801 13.8478 9.34235 14.0994C9.48668 14.3491 9.58421 14.6348 9.63492 14.9567ZM11.1826 19H10.223L12.3792 13.0081H13.4237L15.58 19H14.6203L12.9263 14.0965H12.8795L11.1826 19ZM11.3435 16.6536H14.4565V17.4143H11.3435V16.6536ZM19.665 14.5822C19.6338 14.3052 19.505 14.0907 19.2788 13.9385C19.0525 13.7844 18.7678 13.7074 18.4245 13.7074C18.1787 13.7074 17.9661 13.7464 17.7867 13.8244C17.6072 13.9005 17.4678 14.0058 17.3683 14.1404C17.2708 14.273 17.222 14.4242 17.222 14.5939C17.222 14.7363 17.2552 14.8591 17.3215 14.9625C17.3898 15.0659 17.4785 15.1527 17.5877 15.2229C17.6989 15.2912 17.8179 15.3487 17.9447 15.3955C18.0715 15.4404 18.1934 15.4774 18.3104 15.5067L18.8955 15.6588C19.0867 15.7056 19.2827 15.769 19.4836 15.849C19.6845 15.929 19.8708 16.0343 20.0424 16.165C20.214 16.2957 20.3525 16.4576 20.4579 16.6507C20.5651 16.8438 20.6188 17.0749 20.6188 17.344C20.6188 17.6834 20.531 17.9848 20.3555 18.2481C20.1819 18.5114 19.9293 18.7191 19.5977 18.8713C19.2681 19.0234 18.8692 19.0995 18.4011 19.0995C17.9525 19.0995 17.5643 19.0283 17.2366 18.8859C16.909 18.7435 16.6525 18.5416 16.4672 18.2803C16.2819 18.017 16.1795 17.7049 16.16 17.344H17.067C17.0845 17.5606 17.1547 17.741 17.2776 17.8853C17.4024 18.0277 17.5614 18.134 17.7545 18.2042C17.9495 18.2725 18.1631 18.3066 18.3952 18.3066C18.6507 18.3066 18.878 18.2666 19.0769 18.1867C19.2778 18.1047 19.4358 17.9916 19.5509 17.8473C19.666 17.701 19.7235 17.5303 19.7235 17.3353C19.7235 17.1578 19.6728 17.0125 19.5714 16.8993C19.4719 16.7862 19.3363 16.6926 19.1647 16.6185C18.995 16.5444 18.8029 16.479 18.5883 16.4224L17.8803 16.2294C17.4005 16.0987 17.0201 15.9065 16.7393 15.653C16.4604 15.3994 16.3209 15.0639 16.3209 14.6465C16.3209 14.3013 16.4145 14 16.6018 13.7425C16.789 13.485 17.0426 13.2851 17.3625 13.1427C17.6823 12.9984 18.0432 12.9262 18.445 12.9262C18.8507 12.9262 19.2086 12.9974 19.5187 13.1398C19.8308 13.2822 20.0765 13.4782 20.256 13.7279C20.4354 13.9756 20.529 14.2603 20.5368 14.5822H19.665ZM21.6991 19V13.0081H22.6031V15.612H25.5903V13.0081H26.4973V19H25.5903V16.3873H22.6031V19H21.6991Z" fill="white"/>
</g>
<defs>
<clipPath id="clip0_125_49">
<rect width="32" height="32" fill="white"/>
</clipPath>
</defs>
</svg>
