<svg width="32" height="32" viewBox="0 0 32 32" fill="none" xmlns="http://www.w3.org/2000/svg">
<g clip-path="url(#clip0_125_19)">
<path d="M31.5211 19.8706C29.3839 28.442 20.7014 33.6585 12.128 31.521C3.55811 29.384 -1.65895 20.7021 0.479281 12.1312C2.61551 3.55876 11.2979 -1.65819 19.8689 0.478793C28.4418 2.61577 33.6583 11.2987 31.5211 19.8706V19.8706Z" fill="#1A4BF7"/>
<path d="M4.65828 19V13.0081H5.56233V15.8695H5.63547L8.14866 13.0081H9.28676L6.87012 15.7056L9.29554 19H8.20717L6.27035 16.323L5.56233 17.1363V19H4.65828ZM13.9825 13.0081H14.8895V16.9491C14.8895 17.3684 14.791 17.74 14.594 18.0638C14.397 18.3856 14.12 18.6392 13.7631 18.8245C13.4062 19.0078 12.9878 19.0995 12.508 19.0995C12.0301 19.0995 11.6127 19.0078 11.2558 18.8245C10.8988 18.6392 10.6219 18.3856 10.4249 18.0638C10.2279 17.74 10.1294 17.3684 10.1294 16.9491V13.0081H11.0334V16.8759C11.0334 17.147 11.0929 17.3879 11.2119 17.5986C11.3328 17.8092 11.5035 17.975 11.7239 18.096C11.9443 18.2149 12.2056 18.2744 12.508 18.2744C12.8122 18.2744 13.0746 18.2149 13.295 18.096C13.5173 17.975 13.687 17.8092 13.8041 17.5986C13.923 17.3879 13.9825 17.147 13.9825 16.8759V13.0081ZM19.4719 14.5822C19.4407 14.3052 19.312 14.0907 19.0857 13.9385C18.8594 13.7844 18.5747 13.7074 18.2314 13.7074C17.9856 13.7074 17.773 13.7464 17.5936 13.8244C17.4141 13.9005 17.2747 14.0058 17.1752 14.1404C17.0777 14.273 17.0289 14.4242 17.0289 14.5939C17.0289 14.7363 17.0621 14.8591 17.1284 14.9625C17.1967 15.0659 17.2854 15.1527 17.3946 15.2229C17.5058 15.2912 17.6248 15.3487 17.7516 15.3955C17.8784 15.4404 18.0003 15.4774 18.1173 15.5067L18.7024 15.6588C18.8936 15.7056 19.0896 15.769 19.2905 15.849C19.4914 15.929 19.6777 16.0343 19.8493 16.165C20.0209 16.2957 20.1594 16.4576 20.2648 16.6507C20.372 16.8438 20.4257 17.0749 20.4257 17.344C20.4257 17.6834 20.3379 17.9848 20.1624 18.2481C19.9888 18.5114 19.7362 18.7191 19.4046 18.8713C19.075 19.0234 18.6761 19.0995 18.208 19.0995C17.7594 19.0995 17.3712 19.0283 17.0436 18.8859C16.7159 18.7435 16.4594 18.5416 16.2741 18.2803C16.0888 18.017 15.9864 17.7049 15.9669 17.344H16.8739C16.8914 17.5606 16.9616 17.741 17.0845 17.8853C17.2093 18.0277 17.3683 18.134 17.5614 18.2042C17.7564 18.2725 17.97 18.3066 18.2021 18.3066C18.4576 18.3066 18.6849 18.2666 18.8838 18.1867C19.0847 18.1047 19.2427 17.9916 19.3578 17.8473C19.4729 17.701 19.5304 17.5303 19.5304 17.3353C19.5304 17.1578 19.4797 17.0125 19.3783 16.8993C19.2788 16.7862 19.1432 16.6926 18.9716 16.6185C18.8019 16.5444 18.6098 16.479 18.3952 16.4224L17.6872 16.2294C17.2074 16.0987 16.827 15.9065 16.5462 15.653C16.2673 15.3994 16.1278 15.0639 16.1278 14.6465C16.1278 14.3013 16.2214 14 16.4087 13.7425C16.5959 13.485 16.8495 13.2851 17.1694 13.1427C17.4892 12.9984 17.8501 12.9262 18.2519 12.9262C18.6576 12.9262 19.0155 12.9974 19.3256 13.1398C19.6377 13.2822 19.8834 13.4782 20.0629 13.7279C20.2423 13.9756 20.336 14.2603 20.3438 14.5822H19.4719ZM21.506 19V13.0081H22.41V15.612H25.3972V13.0081H26.3042V19H25.3972V16.3873H22.41V19H21.506Z" fill="white"/>
</g>
<defs>
<clipPath id="clip0_125_19">
<rect width="32" height="32" fill="white"/>
</clipPath>
</defs>
</svg>
