<svg width="32" height="32" viewBox="0 0 32 32" fill="none" xmlns="http://www.w3.org/2000/svg">
<g clip-path="url(#clip0_101_31)">
<path d="M31.5211 19.8706C29.3839 28.442 20.7014 33.6585 12.128 31.521C3.55811 29.384 -1.65895 20.7021 0.479281 12.1312C2.61551 3.55876 11.2979 -1.65819 19.8689 0.478793C28.4418 2.61577 33.6583 11.2987 31.5211 19.8706V19.8706Z" fill="#1A4BF7"/>
<path d="M7.65828 19V13.0081H8.56233V18.2218H11.2774V19H7.65828ZM13.2127 13.0081V19H12.3087V13.0081H13.2127ZM14.5293 19V13.0081H16.7236C17.1488 13.0081 17.5009 13.0784 17.7798 13.2188C18.0587 13.3573 18.2674 13.5455 18.4059 13.7835C18.5444 14.0195 18.6136 14.2857 18.6136 14.5822C18.6136 14.8318 18.5678 15.0425 18.4761 15.2141C18.3844 15.3838 18.2615 15.5204 18.1075 15.6237C17.9553 15.7252 17.7876 15.7993 17.6042 15.8461V15.9046C17.8032 15.9144 17.9973 15.9787 18.1865 16.0977C18.3776 16.2147 18.5356 16.3815 18.6604 16.598C18.7853 16.8145 18.8477 17.0778 18.8477 17.3879C18.8477 17.6942 18.7755 17.9692 18.6312 18.213C18.4888 18.4548 18.2684 18.647 17.97 18.7893C17.6715 18.9298 17.2902 19 16.826 19H14.5293ZM15.4334 18.2247H16.7382C17.1712 18.2247 17.4814 18.1408 17.6686 17.9731C17.8559 17.8053 17.9495 17.5957 17.9495 17.344C17.9495 17.1549 17.9017 16.9813 17.8061 16.8233C17.7105 16.6653 17.574 16.5395 17.3965 16.4459C17.221 16.3522 17.0123 16.3054 16.7704 16.3054H15.4334V18.2247ZM15.4334 15.6003H16.6446C16.8475 15.6003 17.0298 15.5613 17.1917 15.4833C17.3556 15.4053 17.4853 15.296 17.5808 15.1556C17.6784 15.0132 17.7271 14.8455 17.7271 14.6524C17.7271 14.4047 17.6403 14.197 17.4667 14.0292C17.2931 13.8615 17.0269 13.7776 16.668 13.7776H15.4334V15.6003ZM20.549 13.0081L21.9826 15.3516H22.0294L23.463 13.0081H24.5104L22.6438 16.0041L24.5221 19H23.4688L22.0294 16.6887H21.9826L20.5431 19H19.4899L21.4003 16.0041L19.5016 13.0081H20.549Z" fill="white"/>
</g>
<defs>
<clipPath id="clip0_101_31">
<rect width="32" height="32" fill="white"/>
</clipPath>
</defs>
</svg>
