<svg width="32" height="32" viewBox="0 0 32 32" fill="none" xmlns="http://www.w3.org/2000/svg">
<g clip-path="url(#clip0_124_13)">
<path d="M31.5211 19.8706C29.3839 28.442 20.7014 33.6585 12.128 31.521C3.55811 29.384 -1.65895 20.7021 0.479281 12.1312C2.61551 3.55876 11.2979 -1.65819 19.8689 0.478793C28.4418 2.61577 33.6583 11.2987 31.5211 19.8706V19.8706Z" fill="#1A4BF7"/>
<path d="M10.4945 13.0081V19H9.66358L6.61792 14.6056H6.56233V19H5.65828V13.0081H6.49504L9.54363 17.4084H9.59922V13.0081H10.4945ZM12.3194 19H11.3598L13.516 13.0081H14.5605L16.7167 19H15.7571L14.0631 14.0965H14.0163L12.3194 19ZM12.4803 16.6536H15.5933V17.4143H12.4803V16.6536ZM17.582 19V13.0081H18.4861V18.2218H21.2011V19H17.582ZM25.5005 14.5822C25.4692 14.3052 25.3405 14.0907 25.1143 13.9385C24.888 13.7844 24.6032 13.7074 24.26 13.7074C24.0142 13.7074 23.8016 13.7464 23.6221 13.8244C23.4427 13.9005 23.3032 14.0058 23.2038 14.1404C23.1062 14.273 23.0575 14.4242 23.0575 14.5939C23.0575 14.7363 23.0906 14.8591 23.157 14.9625C23.2252 15.0659 23.314 15.1527 23.4232 15.2229C23.5344 15.2912 23.6534 15.3487 23.7801 15.3955C23.9069 15.4404 24.0288 15.4774 24.1459 15.5067L24.731 15.6588C24.9221 15.7056 25.1182 15.769 25.3191 15.849C25.52 15.929 25.7062 16.0343 25.8779 16.165C26.0495 16.2957 26.188 16.4576 26.2933 16.6507C26.4006 16.8438 26.4542 17.0749 26.4542 17.344C26.4542 17.6834 26.3665 17.9848 26.1909 18.2481C26.0173 18.5114 25.7647 18.7191 25.4332 18.8713C25.1035 19.0234 24.7047 19.0995 24.2365 19.0995C23.7879 19.0995 23.3998 19.0283 23.0721 18.8859C22.7444 18.7435 22.4879 18.5416 22.3027 18.2803C22.1174 18.017 22.015 17.7049 21.9955 17.344H22.9024C22.92 17.5606 22.9902 17.741 23.1131 17.8853C23.2379 18.0277 23.3969 18.134 23.59 18.2042C23.785 18.2725 23.9986 18.3066 24.2307 18.3066C24.4862 18.3066 24.7134 18.2666 24.9124 18.1867C25.1133 18.1047 25.2713 17.9916 25.3864 17.8473C25.5014 17.701 25.559 17.5303 25.559 17.3353C25.559 17.1578 25.5083 17.0125 25.4068 16.8993C25.3074 16.7862 25.1718 16.6926 25.0002 16.6185C24.8305 16.5444 24.6383 16.479 24.4238 16.4224L23.7158 16.2294C23.236 16.0987 22.8556 15.9065 22.5747 15.653C22.2958 15.3994 22.1564 15.0639 22.1564 14.6465C22.1564 14.3013 22.25 14 22.4372 13.7425C22.6245 13.485 22.878 13.2851 23.1979 13.1427C23.5178 12.9984 23.8786 12.9262 24.2804 12.9262C24.6861 12.9262 25.044 12.9974 25.3542 13.1398C25.6662 13.2822 25.912 13.4782 26.0915 13.7279C26.2709 13.9756 26.3645 14.2603 26.3723 14.5822H25.5005Z" fill="white"/>
</g>
<defs>
<clipPath id="clip0_124_13">
<rect width="32" height="32" fill="white"/>
</clipPath>
</defs>
</svg>
