<svg width="32" height="32" viewBox="0 0 32 32" fill="none" xmlns="http://www.w3.org/2000/svg">
<g clip-path="url(#clip0_125_43)">
<path d="M31.5211 19.8706C29.3839 28.442 20.7014 33.6585 12.128 31.521C3.55811 29.384 -1.65895 20.7021 0.479281 12.1312C2.61551 3.55876 11.2979 -1.65819 19.8689 0.478793C28.4418 2.61577 33.6583 11.2987 31.5211 19.8706V19.8706Z" fill="#1A4BF7"/>
<path d="M11.8631 16.0041C11.8631 16.6438 11.7461 17.1939 11.512 17.6542C11.278 18.1125 10.9571 18.4656 10.5495 18.7133C10.1438 18.959 9.68249 19.0819 9.16562 19.0819C8.64679 19.0819 8.18356 18.959 7.77591 18.7133C7.37021 18.4656 7.05033 18.1116 6.81627 17.6512C6.58222 17.1909 6.46519 16.6419 6.46519 16.0041C6.46519 15.3643 6.58222 14.8153 6.81627 14.3569C7.05033 13.8966 7.37021 13.5435 7.77591 13.2978C8.18356 13.0501 8.64679 12.9262 9.16562 12.9262C9.68249 12.9262 10.1438 13.0501 10.5495 13.2978C10.9571 13.5435 11.278 13.8966 11.512 14.3569C11.7461 14.8153 11.8631 15.3643 11.8631 16.0041ZM10.9679 16.0041C10.9679 15.5165 10.8889 15.1059 10.7309 14.7723C10.5748 14.4369 10.3603 14.1833 10.0872 14.0117C9.8161 13.8381 9.5089 13.7513 9.16562 13.7513C8.82039 13.7513 8.51221 13.8381 8.24109 14.0117C7.96998 14.1833 7.75543 14.4369 7.59744 14.7723C7.4414 15.1059 7.36338 15.5165 7.36338 16.0041C7.36338 16.4917 7.4414 16.9032 7.59744 17.2387C7.75543 17.5723 7.96998 17.8258 8.24109 17.9994C8.51221 18.171 8.82039 18.2569 9.16562 18.2569C9.5089 18.2569 9.8161 18.171 10.0872 17.9994C10.3603 17.8258 10.5748 17.5723 10.7309 17.2387C10.8889 16.9032 10.9679 16.4917 10.9679 16.0041ZM12.9903 19V13.0081H15.126C15.5902 13.0081 15.9755 13.0881 16.2817 13.2481C16.5899 13.408 16.82 13.6294 16.9721 13.9122C17.1243 14.1931 17.2004 14.5178 17.2004 14.8865C17.2004 15.2531 17.1233 15.5759 16.9692 15.8549C16.8171 16.1318 16.5869 16.3474 16.2788 16.5014C15.9725 16.6555 15.5873 16.7326 15.1231 16.7326H13.5052V15.9543H15.0412C15.3337 15.9543 15.5717 15.9124 15.7551 15.8285C15.9403 15.7447 16.0759 15.6228 16.1617 15.4628C16.2475 15.3029 16.2905 15.1108 16.2905 14.8865C16.2905 14.6602 16.2466 14.4642 16.1588 14.2984C16.073 14.1326 15.9374 14.0058 15.7521 13.918C15.5688 13.8283 15.3279 13.7835 15.0295 13.7835H13.8943V19H12.9903ZM15.9481 16.2966L17.4286 19H16.3987L14.9476 16.2966H15.9481ZM20.2402 19H18.3004V13.0081H20.3016C20.8887 13.0081 21.3929 13.1281 21.8142 13.368C22.2355 13.606 22.5583 13.9483 22.7826 14.3949C23.0089 14.8396 23.122 15.3731 23.122 15.9953C23.122 16.6194 23.0079 17.1558 22.7797 17.6044C22.5534 18.053 22.2257 18.3983 21.7966 18.6401C21.3675 18.88 20.8487 19 20.2402 19ZM19.2045 18.2101H20.1904C20.6468 18.2101 21.0262 18.1242 21.3285 17.9526C21.6309 17.779 21.8571 17.5284 22.0073 17.2007C22.1575 16.8711 22.2326 16.4693 22.2326 15.9953C22.2326 15.5252 22.1575 15.1264 22.0073 14.7987C21.8591 14.471 21.6377 14.2223 21.3432 14.0526C21.0486 13.8829 20.6829 13.7981 20.246 13.7981H19.2045V18.2101ZM25.1502 13.0081V19H24.2462V13.0081H25.1502Z" fill="white"/>
</g>
<defs>
<clipPath id="clip0_125_43">
<rect width="32" height="32" fill="white"/>
</clipPath>
</defs>
</svg>
