<svg width="32" height="32" viewBox="0 0 32 32" fill="none" xmlns="http://www.w3.org/2000/svg">
<g clip-path="url(#clip0_125_91)">
<path d="M31.5211 19.8706C29.3839 28.442 20.7014 33.6585 12.128 31.521C3.55811 29.384 -1.65895 20.7021 0.479281 12.1312C2.61551 3.55876 11.2979 -1.65819 19.8689 0.478793C28.4418 2.61577 33.6583 11.2987 31.5211 19.8706V19.8706Z" fill="#1A4BF7"/>
<path d="M10.8631 16.0041C10.8631 16.6438 10.7461 17.1939 10.512 17.6542C10.278 18.1125 9.95713 18.4656 9.54948 18.7133C9.14378 18.959 8.68249 19.0819 8.16562 19.0819C7.64679 19.0819 7.18356 18.959 6.77591 18.7133C6.37021 18.4656 6.05033 18.1116 5.81627 17.6512C5.58222 17.1909 5.46519 16.6419 5.46519 16.0041C5.46519 15.3643 5.58222 14.8153 5.81627 14.3569C6.05033 13.8966 6.37021 13.5435 6.77591 13.2978C7.18356 13.0501 7.64679 12.9262 8.16562 12.9262C8.68249 12.9262 9.14378 13.0501 9.54948 13.2978C9.95713 13.5435 10.278 13.8966 10.512 14.3569C10.7461 14.8153 10.8631 15.3643 10.8631 16.0041ZM9.96786 16.0041C9.96786 15.5165 9.88886 15.1059 9.73087 14.7723C9.57484 14.4369 9.36028 14.1833 9.08722 14.0117C8.8161 13.8381 8.5089 13.7513 8.16562 13.7513C7.82039 13.7513 7.51221 13.8381 7.24109 14.0117C6.96998 14.1833 6.75543 14.4369 6.59744 14.7723C6.4414 15.1059 6.36338 15.5165 6.36338 16.0041C6.36338 16.4917 6.4414 16.9032 6.59744 17.2387C6.75543 17.5723 6.96998 17.8258 7.24109 17.9994C7.51221 18.171 7.82039 18.2569 8.16562 18.2569C8.5089 18.2569 8.8161 18.171 9.08722 17.9994C9.36028 17.8258 9.57484 17.5723 9.73087 17.2387C9.88886 16.9032 9.96786 16.4917 9.96786 16.0041ZM12.4584 13.0081L13.892 15.3516H13.9388L15.3724 13.0081H16.4198L14.5532 16.0041L16.4315 19H15.3782L13.9388 16.6887H13.892L12.4525 19H11.3993L13.3098 16.0041L11.411 13.0081H12.4584ZM17.3165 19V13.0081H19.5108C19.936 13.0081 20.2881 13.0784 20.567 13.2188C20.8459 13.3573 21.0546 13.5455 21.1931 13.7835C21.3316 14.0195 21.4008 14.2857 21.4008 14.5822C21.4008 14.8318 21.355 15.0425 21.2633 15.2141C21.1716 15.3838 21.0487 15.5204 20.8947 15.6237C20.7425 15.7252 20.5748 15.7993 20.3914 15.8461V15.9046C20.5904 15.9144 20.7845 15.9787 20.9736 16.0977C21.1648 16.2147 21.3228 16.3815 21.4476 16.598C21.5724 16.8145 21.6349 17.0778 21.6349 17.3879C21.6349 17.6942 21.5627 17.9692 21.4184 18.213C21.276 18.4548 21.0556 18.647 20.7571 18.7893C20.4587 18.9298 20.0774 19 19.6132 19H17.3165ZM18.2206 18.2247H19.5254C19.9584 18.2247 20.2686 18.1408 20.4558 17.9731C20.643 17.8053 20.7367 17.5957 20.7367 17.344C20.7367 17.1549 20.6889 16.9813 20.5933 16.8233C20.4977 16.6653 20.3612 16.5395 20.1837 16.4459C20.0082 16.3522 19.7995 16.3054 19.5576 16.3054H18.2206V18.2247ZM18.2206 15.6003H19.4318C19.6346 15.6003 19.817 15.5613 19.9789 15.4833C20.1427 15.4053 20.2725 15.296 20.368 15.1556C20.4656 15.0132 20.5143 14.8455 20.5143 14.6524C20.5143 14.4047 20.4275 14.197 20.2539 14.0292C20.0803 13.8615 19.8141 13.7776 19.4552 13.7776H18.2206V15.6003ZM22.4116 13.7864V13.0081H27.0489V13.7864H25.1794V19H24.2782V13.7864H22.4116Z" fill="white"/>
</g>
<defs>
<clipPath id="clip0_125_91">
<rect width="32" height="32" fill="white"/>
</clipPath>
</defs>
</svg>
