<svg width="32" height="32" viewBox="0 0 32 32" fill="none" xmlns="http://www.w3.org/2000/svg">
<g clip-path="url(#clip0_125_61)">
<path d="M31.5211 19.8706C29.3839 28.442 20.7014 33.6585 12.128 31.521C3.55811 29.384 -1.65895 20.7021 0.479281 12.1312C2.61551 3.55876 11.2979 -1.65819 19.8689 0.478793C28.4418 2.61577 33.6583 11.2987 31.5211 19.8706V19.8706Z" fill="#1A4BF7"/>
<path d="M6.65828 19V13.0081H8.79405C9.26022 13.0081 9.64641 13.093 9.95264 13.2627C10.2589 13.4324 10.488 13.6645 10.6402 13.959C10.7923 14.2516 10.8684 14.5812 10.8684 14.9479C10.8684 15.3165 10.7913 15.6481 10.6373 15.9426C10.4851 16.2352 10.255 16.4673 9.94678 16.639C9.64056 16.8086 9.25534 16.8935 8.79113 16.8935H7.32242V16.127H8.70921C9.00373 16.127 9.24266 16.0762 9.42601 15.9748C9.60935 15.8714 9.74393 15.731 9.82976 15.5535C9.91558 15.376 9.95849 15.1741 9.95849 14.9479C9.95849 14.7216 9.91558 14.5207 9.82976 14.3452C9.74393 14.1697 9.60838 14.0321 9.42308 13.9327C9.23974 13.8332 8.99788 13.7835 8.69751 13.7835H7.56233V19H6.65828ZM11.9282 19V13.0081H15.6848V13.7864H12.8323V15.612H15.4888V16.3873H12.8323V18.2218H15.7199V19H11.9282ZM16.8924 19V13.0081H19.0282C19.4944 13.0081 19.8805 13.093 20.1868 13.2627C20.493 13.4324 20.7222 13.6645 20.8743 13.959C21.0265 14.2516 21.1025 14.5812 21.1025 14.9479C21.1025 15.3165 21.0255 15.6481 20.8714 15.9426C20.7193 16.2352 20.4891 16.4673 20.1809 16.639C19.8747 16.8086 19.4895 16.8935 19.0253 16.8935H17.5566V16.127H18.9433C19.2379 16.127 19.4768 16.0762 19.6601 15.9748C19.8435 15.8714 19.9781 15.731 20.0639 15.5535C20.1497 15.376 20.1926 15.1741 20.1926 14.9479C20.1926 14.7216 20.1497 14.5207 20.0639 14.3452C19.9781 14.1697 19.8425 14.0321 19.6572 13.9327C19.4739 13.8332 19.232 13.7835 18.9316 13.7835H17.7965V19H16.8924ZM22.1624 19V13.0081H25.919V13.7864H23.0664V15.612H25.7229V16.3873H23.0664V18.2218H25.9541V19H22.1624Z" fill="white"/>
</g>
<defs>
<clipPath id="clip0_125_61">
<rect width="32" height="32" fill="white"/>
</clipPath>
</defs>
</svg>
