<svg width="32" height="32" viewBox="0 0 32 32" fill="none" xmlns="http://www.w3.org/2000/svg">
<g clip-path="url(#clip0_125_31)">
<path d="M31.5211 19.8706C29.3839 28.442 20.7014 33.6585 12.128 31.521C3.55811 29.384 -1.65895 20.7021 0.479281 12.1312C2.61551 3.55876 11.2979 -1.65819 19.8689 0.478793C28.4418 2.61577 33.6583 11.2987 31.5211 19.8706V19.8706Z" fill="#1A4BF7"/>
<path d="M7.65828 19V13.0081H9.79405C10.2602 13.0081 10.6464 13.093 10.9526 13.2627C11.2589 13.4324 11.488 13.6645 11.6402 13.959C11.7923 14.2516 11.8684 14.5812 11.8684 14.9479C11.8684 15.3165 11.7913 15.6481 11.6373 15.9426C11.4851 16.2352 11.255 16.4673 10.9468 16.639C10.6406 16.8086 10.2553 16.8935 9.79113 16.8935H8.32242V16.127H9.70921C10.0037 16.127 10.2427 16.0762 10.426 15.9748C10.6094 15.8714 10.7439 15.731 10.8298 15.5535C10.9156 15.376 10.9585 15.1741 10.9585 14.9479C10.9585 14.7216 10.9156 14.5207 10.8298 14.3452C10.7439 14.1697 10.6084 14.0321 10.4231 13.9327C10.2397 13.8332 9.99788 13.7835 9.69751 13.7835H8.56233V19H7.65828ZM13.8323 13.0081V19H12.9282V13.0081H13.8323ZM14.9938 19V18.3973L18.1448 13.7864H14.9674V13.0081H19.2507V13.6108L16.0997 18.2218H19.277V19H14.9938ZM20.9169 19H19.9572L22.1135 13.0081H23.158L25.3142 19H24.3546L22.6606 14.0965H22.6138L20.9169 19ZM21.0778 16.6536H24.1907V17.4143H21.0778V16.6536Z" fill="white"/>
</g>
<defs>
<clipPath id="clip0_125_31">
<rect width="32" height="32" fill="white"/>
</clipPath>
</defs>
</svg>
