<svg width="32" height="32" viewBox="0 0 32 32" fill="none" xmlns="http://www.w3.org/2000/svg">
<g clip-path="url(#clip0_125_37)">
<path d="M31.5211 19.8706C29.3839 28.442 20.7014 33.6585 12.128 31.521C3.55811 29.384 -1.65895 20.7021 0.479281 12.1312C2.61551 3.55876 11.2979 -1.65819 19.8689 0.478793C28.4418 2.61577 33.6583 11.2987 31.5211 19.8706V19.8706Z" fill="#1A4BF7"/>
<path d="M5.65828 19V13.0081H7.79405C8.26022 13.0081 8.64641 13.093 8.95264 13.2627C9.25886 13.4324 9.48804 13.6645 9.64018 13.959C9.79231 14.2516 9.86838 14.5812 9.86838 14.9479C9.86838 15.3165 9.79134 15.6481 9.63725 15.9426C9.48511 16.2352 9.25496 16.4673 8.94678 16.639C8.64056 16.8086 8.25534 16.8935 7.79113 16.8935H6.32242V16.127H7.70921C8.00373 16.127 8.24266 16.0762 8.42601 15.9748C8.60935 15.8714 8.74393 15.731 8.82976 15.5535C8.91558 15.376 8.95849 15.1741 8.95849 14.9479C8.95849 14.7216 8.91558 14.5207 8.82976 14.3452C8.74393 14.1697 8.60838 14.0321 8.42308 13.9327C8.23974 13.8332 7.99788 13.7835 7.69751 13.7835H6.56233V19H5.65828ZM14.7814 13.0081H15.6884V16.9491C15.6884 17.3684 15.5899 17.74 15.3929 18.0638C15.1959 18.3856 14.9189 18.6392 14.562 18.8245C14.205 19.0078 13.7866 19.0995 13.3068 19.0995C12.829 19.0995 12.4116 19.0078 12.0546 18.8245C11.6977 18.6392 11.4207 18.3856 11.2237 18.0638C11.0267 17.74 10.9282 17.3684 10.9282 16.9491V13.0081H11.8323V16.8759C11.8323 17.147 11.8918 17.3879 12.0107 17.5986C12.1317 17.8092 12.3023 17.975 12.5227 18.096C12.7431 18.2149 13.0045 18.2744 13.3068 18.2744C13.6111 18.2744 13.8734 18.2149 14.0938 18.096C14.3162 17.975 14.4859 17.8092 14.6029 17.5986C14.7219 17.3879 14.7814 17.147 14.7814 16.8759V13.0081ZM21.8389 13.0081V19H21.008L17.9624 14.6056H17.9068V19H17.0027V13.0081H17.8395L20.8881 17.4084H20.9437V13.0081H21.8389ZM23.1577 19V13.0081H24.0617V15.8695H24.1349L26.6481 13.0081H27.7862L25.3695 15.7056L27.7949 19H26.7066L24.7698 16.323L24.0617 17.1363V19H23.1577Z" fill="white"/>
</g>
<defs>
<clipPath id="clip0_125_37">
<rect width="32" height="32" fill="white"/>
</clipPath>
</defs>
</svg>
