<svg width="32" height="32" viewBox="0 0 32 32" fill="none" xmlns="http://www.w3.org/2000/svg">
<g clip-path="url(#clip0_101_19)">
<path d="M31.5211 19.8706C29.3839 28.442 20.7014 33.6585 12.128 31.521C3.55811 29.384 -1.65895 20.7021 0.479281 12.1312C2.61551 3.55876 11.2979 -1.65819 19.8689 0.478793C28.4418 2.61577 33.6583 11.2987 31.5211 19.8706V19.8706Z" fill="#1A4BF7"/>
<path d="M5.18199 13.0081L6.84964 17.8882H6.91693L8.58459 13.0081H9.56178L7.40553 19H6.36105L4.2048 13.0081H5.18199ZM10.4271 13.0081H11.5242L13.4318 17.6659H13.502L15.4095 13.0081H16.5067V19H15.6465V14.6641H15.5909L13.8238 18.9912H13.1099L11.3428 14.6612H11.2872V19H10.4271V13.0081ZM17.8211 19V13.0081H19.9568C20.423 13.0081 20.8092 13.093 21.1154 13.2627C21.4216 13.4324 21.6508 13.6645 21.803 13.959C21.9551 14.2516 22.0312 14.5812 22.0312 14.9479C22.0312 15.3165 21.9541 15.6481 21.8 15.9426C21.6479 16.2352 21.4177 16.4673 21.1096 16.639C20.8033 16.8086 20.4181 16.8935 19.9539 16.8935H18.4852V16.127H19.872C20.1665 16.127 20.4054 16.0762 20.5888 15.9748C20.7721 15.8714 20.9067 15.731 20.9925 15.5535C21.0783 15.376 21.1213 15.1741 21.1213 14.9479C21.1213 14.7216 21.0783 14.5207 20.9925 14.3452C20.9067 14.1697 20.7711 14.0321 20.5859 13.9327C20.4025 13.8332 20.1607 13.7835 19.8603 13.7835H18.7251V19H17.8211ZM23.72 13.0081L25.1536 15.3516H25.2004L26.634 13.0081H27.6814L25.8148 16.0041L27.6931 19H26.6399L25.2004 16.6887H25.1536L23.7142 19H22.6609L24.5714 16.0041L22.6726 13.0081H23.72Z" fill="white"/>
</g>
<defs>
<clipPath id="clip0_101_19">
<rect width="32" height="32" fill="white"/>
</clipPath>
</defs>
</svg>
