<svg width="32" height="32" viewBox="0 0 32 32" fill="none" xmlns="http://www.w3.org/2000/svg">
<g clip-path="url(#clip0_125_67)">
<path d="M31.5211 19.8706C29.3839 28.442 20.7014 33.6585 12.128 31.521C3.55811 29.384 -1.65895 20.7021 0.479281 12.1312C2.61551 3.55876 11.2979 -1.65819 19.8689 0.478793C28.4418 2.61577 33.6583 11.2987 31.5211 19.8706V19.8706Z" fill="#1A4BF7"/>
<path d="M5.8315 19L4.16969 13.0081H5.12055L6.28791 17.6483H6.34349L7.55766 13.0081H8.49974L9.71391 17.6512H9.7695L10.9339 13.0081H11.8877L10.223 19H9.31309L8.05211 14.512H8.0053L6.74432 19H5.8315ZM12.712 19V13.0081H13.6161V15.612H16.6032V13.0081H17.5102V19H16.6032V16.3873H13.6161V19H12.712ZM18.8268 19V13.0081H22.5834V13.7864H19.7308V15.612H22.3874V16.3873H19.7308V18.2218H22.6185V19H18.8268ZM23.791 19V13.0081H27.5476V13.7864H24.695V15.612H27.3516V16.3873H24.695V18.2218H27.5827V19H23.791Z" fill="white"/>
</g>
<defs>
<clipPath id="clip0_125_67">
<rect width="32" height="32" fill="white"/>
</clipPath>
</defs>
</svg>
