<svg width="32" height="32" viewBox="0 0 32 32" fill="none" xmlns="http://www.w3.org/2000/svg">
<g clip-path="url(#clip0_125_73)">
<path d="M31.5211 19.8706C29.3839 28.442 20.7014 33.6585 12.128 31.521C3.55811 29.384 -1.65895 20.7021 0.479281 12.1312C2.61551 3.55876 11.2979 -1.65819 19.8689 0.478793C28.4418 2.61577 33.6583 11.2987 31.5211 19.8706V19.8706Z" fill="#1A4BF7"/>
<path d="M7.28731 13.0081L8.72091 15.3516H8.76772L10.2013 13.0081H11.2487L9.38212 16.0041L11.2604 19H10.2072L8.76772 16.6887H8.72091L7.28146 19H6.22821L8.13869 16.0041L6.23991 13.0081H7.28731ZM13.0495 13.0081V19H12.1455V13.0081H13.0495ZM19.2023 13.0081V19H18.3714L15.3257 14.6056H15.2701V19H14.3661V13.0081H15.2028L18.2514 17.4084H18.307V13.0081H19.2023ZM24.5761 14.9011C24.5195 14.7236 24.4434 14.5646 24.3479 14.4242C24.2542 14.2818 24.1421 14.1609 24.0114 14.0614C23.8807 13.96 23.7315 13.8829 23.5638 13.8303C23.398 13.7776 23.2156 13.7513 23.0167 13.7513C22.6792 13.7513 22.375 13.8381 22.1038 14.0117C21.8327 14.1853 21.6182 14.4398 21.4602 14.7753C21.3042 15.1088 21.2261 15.5174 21.2261 16.0011C21.2261 16.4868 21.3051 16.8974 21.4631 17.2329C21.6211 17.5684 21.8376 17.8229 22.1126 17.9965C22.3876 18.1701 22.7007 18.2569 23.0518 18.2569C23.3775 18.2569 23.6613 18.1906 23.9032 18.0579C24.147 17.9253 24.3352 17.738 24.4678 17.4962C24.6024 17.2524 24.6697 16.9657 24.6697 16.636L24.9038 16.6799H23.1893V15.9339H25.5445V16.6155C25.5445 17.1188 25.4372 17.5557 25.2227 17.9263C25.0101 18.2949 24.7155 18.5797 24.3391 18.7806C23.9646 18.9815 23.5355 19.0819 23.0518 19.0819C22.5095 19.0819 22.0336 18.9571 21.624 18.7074C21.2164 18.4578 20.8985 18.1038 20.6702 17.6454C20.442 17.1851 20.3279 16.639 20.3279 16.007C20.3279 15.5291 20.3943 15.1 20.5269 14.7197C20.6595 14.3393 20.8458 14.0165 21.0857 13.7513C21.3276 13.4841 21.6113 13.2802 21.9371 13.1398C22.2648 12.9974 22.6227 12.9262 23.0108 12.9262C23.3346 12.9262 23.6359 12.974 23.9149 13.0696C24.1957 13.1652 24.4454 13.3007 24.6638 13.4763C24.8842 13.6518 25.0666 13.8605 25.2109 14.1024C25.3553 14.3423 25.4528 14.6085 25.5035 14.9011H24.5761Z" fill="white"/>
</g>
<defs>
<clipPath id="clip0_125_73">
<rect width="32" height="32" fill="white"/>
</clipPath>
</defs>
</svg>
