<svg width="32" height="32" viewBox="0 0 32 32" fill="none" xmlns="http://www.w3.org/2000/svg">
<g clip-path="url(#clip0_125_25)">
<path d="M31.5211 19.8706C29.3839 28.442 20.7014 33.6585 12.128 31.521C3.55811 29.384 -1.65895 20.7021 0.479281 12.1312C2.61551 3.55876 11.2979 -1.65819 19.8689 0.478793C28.4418 2.61577 33.6583 11.2987 31.5211 19.8706V19.8706Z" fill="#1A4BF7"/>
<path d="M7.50322 19V18.3973L10.6542 13.7864H7.47689V13.0081H11.7601V13.6108L8.60914 18.2218H11.7865V19H7.50322ZM12.9202 19V13.0081H15.1145C15.5397 13.0081 15.8917 13.0784 16.1706 13.2188C16.4496 13.3573 16.6583 13.5455 16.7967 13.7835C16.9352 14.0195 17.0045 14.2857 17.0045 14.5822C17.0045 14.8318 16.9586 15.0425 16.867 15.2141C16.7753 15.3838 16.6524 15.5204 16.4983 15.6237C16.3462 15.7252 16.1784 15.7993 15.9951 15.8461V15.9046C16.194 15.9144 16.3881 15.9787 16.5773 16.0977C16.7685 16.2147 16.9264 16.3815 17.0513 16.598C17.1761 16.8145 17.2385 17.0778 17.2385 17.3879C17.2385 17.6942 17.1664 17.9692 17.022 18.213C16.8796 18.4548 16.6592 18.647 16.3608 18.7893C16.0624 18.9298 15.6811 19 15.2169 19H12.9202ZM13.8242 18.2247H15.1291C15.5621 18.2247 15.8722 18.1408 16.0595 17.9731C16.2467 17.8053 16.3403 17.5957 16.3403 17.344C16.3403 17.1549 16.2925 16.9813 16.197 16.8233C16.1014 16.6653 15.9649 16.5395 15.7874 16.4459C15.6118 16.3522 15.4031 16.3054 15.1613 16.3054H13.8242V18.2247ZM13.8242 15.6003H15.0355C15.2383 15.6003 15.4207 15.5613 15.5826 15.4833C15.7464 15.4053 15.8761 15.296 15.9717 15.1556C16.0692 15.0132 16.118 14.8455 16.118 14.6524C16.118 14.4047 16.0312 14.197 15.8576 14.0292C15.684 13.8615 15.4178 13.7776 15.0589 13.7776H13.8242V15.6003ZM19.2148 13.0081V19H18.3108V13.0081H19.2148ZM20.2359 13.7864V13.0081H24.8732V13.7864H23.0036V19H22.1025V13.7864H20.2359Z" fill="white"/>
</g>
<defs>
<clipPath id="clip0_125_25">
<rect width="32" height="32" fill="white"/>
</clipPath>
</defs>
</svg>
